<svg width="92" height="86" viewBox="0 0 92 86" fill="none" xmlns="http://www.w3.org/2000/svg">
<ellipse cx="45.995" cy="43" rx="45.995" ry="43" fill="#38A484" fill-opacity="0.1"/>
<path d="M32.4711 58.1713H48.1907C49.4791 59.0463 50.9742 59.7338 52.67 60.1898C52.7247 60.204 52.7809 60.2125 52.8371 60.2125C52.8933 60.2125 52.9511 60.2054 53.0057 60.1898C54.9992 59.6529 56.7328 58.8148 58.1564 57.7012C60.5373 55.8304 61.9032 53.0135 61.9032 49.9768V43.8873C61.9032 43.7254 61.8288 43.5692 61.6996 43.4626C61.569 43.3547 61.3973 43.3049 61.224 43.3234C59.024 43.572 57.292 43.3973 56.0034 43.1075V30.717C56.0034 29.6616 55.0872 28.8022 53.9613 28.8022H49.5808C49.4076 28.1602 48.7907 27.68 48.0492 27.68H45.1457C45.1366 27.2113 44.9375 26.771 44.5805 26.4386C44.2158 26.0976 43.7327 25.9102 43.2176 25.9102C42.1677 25.9102 41.3123 26.7014 41.2941 27.68H38.3859C37.646 27.68 37.0276 28.1602 36.8544 28.8022H32.4696C31.3468 28.8022 30.4336 29.6616 30.4336 30.717V56.2737C30.4336 57.3206 31.3468 58.1714 32.4696 58.1714L32.4711 58.1713ZM60.6892 44.5164V49.9768C60.6892 52.6785 59.4813 55.1772 57.377 56.8306C56.1235 57.8107 54.598 58.5579 52.8385 59.0522C51.0776 58.5579 49.5491 57.8121 48.297 56.832C46.1911 55.1772 44.9832 52.6786 44.9832 49.9768V44.5164C49.3349 44.8658 51.9177 43.6869 52.8383 43.1542C53.7591 43.6868 56.3375 44.8673 60.6892 44.5164ZM38.0185 29.1601C38.0185 28.9697 38.1826 28.8163 38.3862 28.8163H41.902C42.2378 28.8163 42.5098 28.5621 42.5098 28.2481V27.7126C42.5098 27.3461 42.8273 27.0464 43.2178 27.0464C43.4078 27.0464 43.5855 27.116 43.7208 27.2425C43.856 27.3689 43.9304 27.5351 43.9304 27.7126V28.2482C43.9304 28.5621 44.2024 28.8163 44.5382 28.8163H48.0495C48.2531 28.8163 48.4172 28.9697 48.4172 29.1601V31.3277H38.0171V29.1601L38.0185 29.1601ZM31.6507 30.7169C31.6507 30.2879 32.0184 29.9385 32.4712 29.9385H36.8031V31.8973C36.8031 32.2112 37.0751 32.4655 37.4109 32.4655H49.0265C49.3623 32.4655 49.6343 32.2112 49.6343 31.8973V29.9385H53.9615C54.4173 29.9385 54.788 30.2879 54.788 30.7169V42.7652C53.7503 42.4044 53.2291 42.0323 53.22 42.0237C52.9997 41.8575 52.6822 41.8575 52.4604 42.0223C52.4345 42.0408 49.806 43.9257 44.4485 43.322C44.2753 43.3021 44.102 43.3533 43.9729 43.4612C43.8422 43.5692 43.7693 43.724 43.7693 43.886V49.9754C43.7693 52.6729 44.8511 55.1914 46.761 57.0336L32.4712 57.035C32.0184 57.035 31.6507 56.6941 31.6507 56.2736L31.6507 30.7169Z" fill="black"/>
<path d="M35.2953 36.8942H51.1424C51.4782 36.8942 51.7502 36.6399 51.7502 36.326C51.7502 36.0121 51.4782 35.7578 51.1424 35.7578H35.2953C34.9595 35.7578 34.6875 36.0121 34.6875 36.326C34.6875 36.6399 34.9595 36.8942 35.2953 36.8942Z" fill="black"/>
<path d="M35.2953 40.6832H51.1424C51.4782 40.6832 51.7502 40.429 51.7502 40.1151C51.7502 39.8011 51.4782 39.5469 51.1424 39.5469H35.2953C34.9595 39.5469 34.6875 39.8011 34.6875 40.1151C34.6875 40.429 34.9595 40.6832 35.2953 40.6832Z" fill="black"/>
<path d="M35.2953 44.4723H41.6081C41.9439 44.4723 42.2159 44.218 42.2159 43.9041C42.2159 43.5902 41.9439 43.3359 41.6081 43.3359H35.2953C34.9595 43.3359 34.6875 43.5902 34.6875 43.9041C34.6875 44.218 34.9595 44.4723 35.2953 44.4723Z" fill="black"/>
<path d="M35.2953 48.2575H41.6081C41.9439 48.2575 42.2159 48.0032 42.2159 47.6893C42.2159 47.3754 41.9439 47.1211 41.6081 47.1211H35.2953C34.9595 47.1211 34.6875 47.3754 34.6875 47.6893C34.6875 48.0032 34.9595 48.2575 35.2953 48.2575Z" fill="black"/>
<path d="M35.2953 52.0465H41.6081C41.9439 52.0465 42.2159 51.7923 42.2159 51.4783C42.2159 51.1644 41.9439 50.9102 41.6081 50.9102H35.2953C34.9595 50.9102 34.6875 51.1644 34.6875 51.4783C34.6875 51.7923 34.9595 52.0465 35.2953 52.0465Z" fill="black"/>
<path d="M50.4205 50.098C50.1835 49.8764 49.7991 49.8764 49.5606 50.098C49.3236 50.3196 49.3236 50.679 49.5606 50.902L51.6756 52.8792C51.7941 52.99 51.9491 53.0454 52.1056 53.0454C52.2606 53.0454 52.4171 52.99 52.5356 52.8792L56.1153 49.5327C56.3523 49.3111 56.3523 48.9517 56.1153 48.7287C55.8782 48.5071 55.4938 48.5071 55.2553 48.7287L52.1056 51.6733L50.4205 50.098Z" fill="black"/>
</svg>
