<svg width="92" height="86" viewBox="0 0 92 86" fill="none" xmlns="http://www.w3.org/2000/svg">
<ellipse cx="45.995" cy="43" rx="45.995" ry="43" fill="#38A484" fill-opacity="0.1"/>
<path d="M59.5884 48.4459C59.5884 46.4431 58.0918 44.7713 56.0938 44.3281V33.007C56.0938 32.9857 56.0847 32.9658 56.0816 32.9445C56.0786 32.9289 56.0755 32.9161 56.0725 32.899C56.0527 32.8138 56.0178 32.7314 55.954 32.6632C55.9525 32.6618 55.9525 32.6604 55.9509 32.6575L54.8144 31.4701L50.7015 27.1719C50.6301 27.098 50.5344 27.0554 50.4341 27.0284C50.4189 27.0241 50.4068 27.0227 50.3916 27.0199C50.3581 27.0142 50.3262 27 50.2913 27H35.0182C33.7784 27 32.7695 27.9432 32.7695 29.1023V56.6193C32.7695 57.7784 33.7784 58.7216 35.0182 58.7216H53.8449C55.0847 58.7216 56.0935 57.7784 56.0935 56.6193V52.5655C58.0915 52.1223 59.5882 50.4491 59.5882 48.4463L59.5884 48.4459ZM50.8367 28.8633L54.2963 32.4741L54.3085 32.4869L51.9838 32.4883C51.3517 32.4883 50.8367 32.0082 50.8367 31.4159L50.8367 28.8633ZM53.8466 57.6928H35.0184C34.3863 57.6928 33.8697 57.2113 33.8697 56.6189L33.8713 29.1019C33.8713 28.5109 34.3863 28.028 35.0199 28.028H49.7368V31.4158C49.7368 32.5735 50.7457 33.5166 51.9839 33.5166H54.9939L54.9923 44.2097C53.4912 44.2268 52.1708 44.9299 51.3579 45.9967H35.9483C35.6445 45.9967 35.3983 46.2268 35.3983 46.5109C35.3983 46.795 35.6444 47.0251 35.9483 47.0251H50.7959C50.6257 47.4711 50.5148 47.9455 50.5148 48.4455C50.5148 48.9313 50.6211 49.3916 50.7822 49.8276L35.9483 49.8291C35.6444 49.8291 35.3982 50.0592 35.3982 50.3433C35.3982 50.6274 35.6444 50.8575 35.9483 50.8575H51.326C52.1358 51.9484 53.4744 52.6643 54.9938 52.6842V56.6202C54.9938 57.2097 54.4787 57.6928 53.8466 57.6928ZM55.05 51.6586C53.1538 51.6586 51.6131 50.2183 51.6131 48.4456C51.6131 46.6743 53.1538 45.2325 55.05 45.2325C56.9447 45.2325 58.4868 46.6728 58.4868 48.4456C58.4868 50.2183 56.9462 51.6586 55.05 51.6586Z" fill="black"/>
<path d="M56.4114 46.9287L54.3086 48.8236L53.7464 48.1347C53.561 47.9088 53.2176 47.8648 52.9745 48.0381C52.7329 48.2114 52.6858 48.5324 52.8712 48.7597L53.8087 49.9074C53.9029 50.0239 54.0487 50.0977 54.2037 50.1091C54.2174 50.1091 54.2311 50.1105 54.2463 50.1105C54.3891 50.1105 54.5258 50.0594 54.6276 49.9671L57.1757 47.6716C57.3944 47.4756 57.4005 47.1489 57.1908 46.9443C56.9797 46.737 56.6302 46.7327 56.4114 46.9287Z" fill="black"/>
<path d="M35.9485 43.1847H52.9139C53.2178 43.1847 53.464 42.9546 53.464 42.6705C53.464 42.3864 53.2178 42.1562 52.9139 42.1562H35.9485C35.6446 42.1562 35.3984 42.3864 35.3984 42.6705C35.3984 42.9546 35.6446 43.1847 35.9485 43.1847Z" fill="black"/>
<path d="M52.9139 53.6719H35.9485C35.6446 53.6719 35.3984 53.902 35.3984 54.1861C35.3984 54.4702 35.6446 54.7003 35.9485 54.7003H52.9139C53.2178 54.7003 53.464 54.4702 53.464 54.1861C53.464 53.902 53.2178 53.6719 52.9139 53.6719Z" fill="black"/>
<path d="M43.6427 36.6854H43.6548C43.7976 36.6854 43.9344 36.6343 44.0377 36.5405L46.5098 34.3062C46.7286 34.1087 46.7346 33.7834 46.5219 33.5789C46.3123 33.3744 45.9628 33.3687 45.744 33.5675L43.6716 35.4411L43.1367 34.9155C42.9271 34.7096 42.5791 34.7011 42.3588 34.8971C42.1385 35.0931 42.1294 35.4184 42.3391 35.6243L43.2568 36.5263C43.3555 36.6244 43.4953 36.6812 43.6427 36.6854Z" fill="black"/>
<path d="M42.1505 38.9688C42.6793 39.3978 43.3204 39.8666 44.1075 40.4035C44.2047 40.4688 44.3172 40.5029 44.4311 40.5029C44.5451 40.5029 44.659 40.4702 44.7547 40.4035C45.5418 39.8679 46.183 39.3978 46.7117 38.9702C48.1414 37.8196 48.9604 36.135 48.9604 34.348L48.9634 32.3523C48.9634 32.0682 48.7173 31.8381 48.4134 31.8381C48.2386 31.8381 48.0973 31.7074 48.0973 31.5455C48.0973 31.2614 47.8512 31.0312 47.5473 31.0312H41.3239C41.02 31.0312 40.7738 31.2614 40.7738 31.5455C40.7738 31.7074 40.631 31.8381 40.4563 31.8381C40.1524 31.8381 39.9063 32.0682 39.9063 32.3523V34.348C39.9032 36.1364 40.7223 37.8211 42.1505 38.9688ZM41.0034 32.763C41.3437 32.6295 41.6157 32.3766 41.7585 32.0584H47.1068C47.2511 32.3752 47.5231 32.628 47.8619 32.763V34.3482C47.8619 35.8369 47.1812 37.2374 45.9946 38.1919C45.5676 38.5356 45.0434 38.9248 44.4326 39.3495C43.8203 38.9248 43.2961 38.537 42.8707 38.1919C41.6841 37.2373 41.0049 35.8367 41.0049 34.3482V32.763H41.0034Z" fill="black"/>
</svg>
