<svg width="92" height="86" viewBox="0 0 92 86" fill="none" xmlns="http://www.w3.org/2000/svg">
<ellipse cx="45.995" cy="43" rx="45.995" ry="43" fill="#38A484" fill-opacity="0.1"/>
<g clip-path="url(#clip0_3088_3499)">
<path d="M51.3299 60.4595C51.8209 60.5286 52.322 60.4984 52.7994 60.3708C53.2768 60.2432 53.7194 60.0212 54.0971 59.7199C54.4748 59.4187 54.779 59.0451 54.989 58.6244C55.199 58.2038 55.3099 57.7459 55.3143 57.2817L55.3143 52.8231C55.316 52.2152 55.0861 51.6265 54.6659 51.1626C54.2456 50.6987 53.6625 50.3897 53.0208 50.2911L47.5165 49.432C46.0554 49.1212 44.9008 50.3235 43.901 51.1069C43.5601 51.378 43.1354 51.5402 42.689 51.5697C42.2425 51.5992 41.7977 51.4946 41.4194 51.271C39.7016 50.2209 38.244 48.8394 37.1444 47.2192C36.9051 46.8814 36.7825 46.4831 36.7932 46.078C36.804 45.673 36.9475 45.2808 37.2045 44.9545L38.7237 43.0368C38.9478 42.753 39.1072 42.4293 39.192 42.0856C39.2767 41.7419 39.2851 41.3856 39.2166 41.0388L38.3079 36.4761C38.1905 35.8869 37.8563 35.3546 37.3633 34.9716C36.8702 34.5886 36.2493 34.3789 35.6083 34.3789H30.7164C30.2406 34.3784 29.77 34.4702 29.3342 34.6486C28.8985 34.827 28.5071 35.0881 28.185 35.4153C27.8628 35.7425 27.6168 36.1287 27.4627 36.5495C27.3085 36.9702 27.2495 37.4163 27.2895 37.8594C27.8085 43.656 31.1916 57.4618 51.3299 60.4595ZM29.1671 36.264C29.3634 36.0627 29.6028 35.9021 29.8696 35.7927C30.1365 35.6833 30.425 35.6275 30.7164 35.6289H35.6083C35.9371 35.6289 36.2555 35.7365 36.5085 35.933C36.7614 36.1294 36.9328 36.4024 36.993 36.7047L37.9018 41.2677C37.9371 41.4456 37.933 41.6284 37.8895 41.8048C37.846 41.9811 37.7642 42.1472 37.6491 42.2927L36.1299 44.2105C35.7102 44.7433 35.4754 45.3838 35.4575 46.0454C35.4395 46.7069 35.6391 47.3577 36.0294 47.9098C38.4422 51.0633 41.6928 54.3395 44.7659 52.06L46.1533 50.9598C46.3091 50.8355 46.4922 50.7447 46.6896 50.6938C46.887 50.6429 47.0939 50.633 47.2958 50.665L52.8001 51.524C53.1294 51.5746 53.4287 51.7331 53.6444 51.9711C53.8601 52.2091 53.9781 52.5112 53.9772 52.8232V57.2818C53.9745 57.5657 53.9066 57.8457 53.7782 58.1029C53.6497 58.3602 53.4636 58.5886 53.2326 58.7728C53.0015 58.957 52.7308 59.0927 52.4388 59.1707C52.1469 59.2487 51.8404 59.2671 51.5401 59.2248C32.3355 56.3665 29.1149 43.2583 28.6213 37.7551C28.5956 37.4847 28.6309 37.2122 28.7249 36.9554C28.8189 36.6985 28.9696 36.463 29.1671 36.264Z" fill="black"/>
<path d="M37.1764 33.5273C37.2642 33.5274 37.3511 33.5112 37.4322 33.4798C37.5133 33.4484 37.587 33.4024 37.6491 33.3443C37.7112 33.2863 37.7605 33.2174 37.794 33.1415C37.8276 33.0657 37.8449 32.9844 37.8449 32.9023V28.434C37.845 28.3221 37.8571 28.2106 37.8809 28.1011L47.5829 35.1531L40.5765 39.7612C40.5047 39.8084 40.4435 39.8683 40.3965 39.9377C40.3495 40.007 40.3175 40.0842 40.3025 40.1651C40.2874 40.2459 40.2895 40.3288 40.3087 40.4089C40.3279 40.4889 40.3637 40.5647 40.4142 40.6318C40.4647 40.699 40.5289 40.7561 40.603 40.8001C40.6771 40.844 40.7598 40.8739 40.8463 40.888C40.9328 40.9021 41.0214 40.9001 41.107 40.8822C41.1927 40.8642 41.2737 40.8307 41.3455 40.7835L48.7143 35.9371C49.2565 36.2578 49.8849 36.4281 50.5265 36.4283C51.1681 36.4284 51.7966 36.2584 52.339 35.9379L61.7188 42.1078C61.6161 42.1261 61.5119 42.136 61.4074 42.1373H40.9878C40.8123 42.1398 40.6449 42.2068 40.5217 42.3237C40.3985 42.4406 40.3295 42.5982 40.3295 42.7623C40.3295 42.9264 40.3985 43.0839 40.5217 43.2008C40.6449 43.3178 40.8123 43.3847 40.9878 43.3873H61.4074C62.2394 43.3864 63.0371 43.077 63.6255 42.527C64.2138 41.977 64.5448 41.2312 64.5457 40.4533V28.434C64.5409 27.6572 64.2087 26.9136 63.6212 26.3643C63.0337 25.815 62.2382 25.5045 61.4074 25.5H39.6462C38.8153 25.5045 38.0199 25.8151 37.4324 26.3643C36.8448 26.9136 36.5126 27.6572 36.5078 28.4339V32.9023C36.5078 32.9844 36.5251 33.0657 36.5587 33.1416C36.5922 33.2174 36.6415 33.2863 36.7036 33.3443C36.7657 33.4024 36.8394 33.4484 36.9205 33.4798C37.0016 33.5112 37.0886 33.5274 37.1764 33.5273ZM63.1726 28.101C63.1964 28.2106 63.2085 28.3221 63.2086 28.434V40.4533C63.2082 40.7781 63.1066 41.0957 62.9162 41.3673L53.4688 35.1529L63.1726 28.101ZM61.4074 26.75C61.7749 26.7502 62.1335 26.8563 62.4343 27.0538L51.9415 34.6812L51.8312 34.7596C51.4574 35.0321 50.9967 35.1797 50.5227 35.1788C50.0487 35.178 49.5886 35.0288 49.2158 34.7551L38.6193 27.0538C38.9201 26.8563 39.2786 26.7502 39.6462 26.75H61.4074Z" fill="black"/>
</g>
<defs>
<clipPath id="clip0_3088_3499">
<rect width="42.7861" height="40" fill="white" transform="translate(24.6016 23)"/>
</clipPath>
</defs>
</svg>
