<svg width="87" height="86" viewBox="0 0 87 86" fill="none" xmlns="http://www.w3.org/2000/svg">
<circle cx="43.9258" cy="43" r="43" fill="#38A484" fill-opacity="0.1"/>
<path fill-rule="evenodd" clip-rule="evenodd" d="M39.1456 46.9513C38.6101 47.0464 38.0277 47.1231 37.4126 47.1814C36.63 47.2538 35.8047 47.2922 34.9581 47.2922H34.9567C33.0817 47.3192 31.2109 47.1004 29.3927 46.643C28.7748 46.4867 28.1853 46.2382 27.6427 45.9044V50.1087C27.6427 50.5008 28.3941 50.9085 29.6072 51.2479C31.3557 51.684 33.154 51.89 34.9566 51.863C35.4041 51.863 35.8259 51.8531 36.2194 51.8346C36.539 51.819 36.8515 51.7991 37.1541 51.7735L37.1555 51.7749C37.2265 51.5178 37.316 51.2664 37.4225 51.0221C37.7365 50.3047 38.1953 49.6585 38.7705 49.1258C38.8444 49.0562 38.9424 49.0164 39.0447 49.0178H39.1455L39.1456 46.9513ZM42.532 53.4585V54.9301C42.532 54.9869 42.5788 55.0352 42.6371 55.0352C42.6953 55.0352 42.7422 54.9869 42.7422 54.9301V53.4585C42.7422 53.3136 42.8203 53.1801 42.9453 53.1091C43.0135 53.0608 43.0703 52.9983 43.1101 52.9259C43.2123 52.7369 43.1939 52.5054 43.0632 52.3364C42.9311 52.1673 42.7123 52.092 42.5035 52.1446C42.2961 52.1972 42.1399 52.3676 42.1044 52.5793C42.0703 52.7909 42.164 53.004 42.3444 53.119C42.4595 53.1943 42.5305 53.3222 42.5305 53.4585H42.532ZM41.7251 54.9301V53.6531C41.6186 53.5537 41.5277 53.4372 41.4581 53.308C41.2294 52.8918 41.2393 52.3861 41.4808 51.9784C41.7223 51.5708 42.1626 51.3208 42.6371 51.3208C43.1115 51.3208 43.5504 51.5708 43.7933 51.9784C44.0348 52.3861 44.0433 52.8918 43.816 53.308C43.7464 53.4372 43.6555 53.5537 43.5476 53.6531V54.9301C43.5476 55.433 43.1399 55.8421 42.6356 55.8421C42.1314 55.8421 41.7223 55.433 41.7223 54.9301H41.7251ZM39.9524 49.0181H40.2976V46.2213C40.2976 44.9286 41.3444 43.8818 42.6356 43.8818C43.9283 43.8818 44.9751 44.9286 44.9751 46.2213V49.0181H45.3203V46.2213C45.3203 44.7383 44.1172 43.5366 42.6342 43.5366C41.1527 43.5366 39.9496 44.7383 39.9496 46.2213V49.0181H39.9524ZM41.1058 49.0181V46.2213C41.1058 45.3747 41.7905 44.69 42.637 44.69C43.4822 44.69 44.1669 45.3747 44.1669 46.2213V49.0181H41.1058ZM46.1298 49.0181H46.2307C46.3415 49.0167 46.448 49.0636 46.5247 49.1445C47.9736 50.5025 48.6113 52.5181 48.2037 54.4613C47.7974 56.4059 46.4068 57.9968 44.5346 58.6587C42.6624 59.3221 40.58 58.9613 39.0404 57.7056C38.3856 57.8093 37.7279 57.8846 37.1356 57.9357C36.137 58.0238 35.3032 58.0508 34.9566 58.0508H34.8927C33.4239 58.0209 31.9594 57.886 30.5105 57.6459C28.5829 57.305 26.8359 56.6672 26.8359 55.4954V39.3404C26.8388 38.8504 27.1854 38.4171 27.8018 38.0606C28.3331 37.7737 28.8998 37.5535 29.4865 37.4072C28.6356 36.0904 28.289 34.5095 28.5092 32.957C28.7308 31.4045 29.5035 29.984 30.6882 28.957C31.8728 27.9286 33.3885 27.3633 34.9566 27.3633C36.5246 27.3633 38.0404 27.9286 39.2235 28.957C40.4081 29.984 41.1823 31.4045 41.4024 32.957C41.624 34.5096 41.2774 36.0906 40.4266 37.4072C41.0132 37.5535 41.5786 37.7737 42.1098 38.0606C42.7263 38.4172 43.0729 38.8504 43.0757 39.3404C43.0885 40.4754 43.0786 41.6188 43.0757 42.7566H43.0771C44.8186 42.9825 46.1226 44.464 46.1269 46.2211V49.018L46.1298 49.0181ZM42.2705 42.7483C40.529 42.9358 39.1938 44.3818 39.1455 46.1333C38.5887 46.2369 37.9822 46.3207 37.3387 46.379C36.6001 46.4472 35.7989 46.4841 34.9566 46.4841C33.154 46.5111 31.3557 46.3037 29.6071 45.8676C28.3941 45.5281 27.6441 45.1219 27.6426 44.7284V40.5241C28.1853 40.8579 28.7748 41.1065 29.3926 41.2641C31.2108 41.7201 33.0817 41.9374 34.9566 41.9118C36.8316 41.9374 38.7025 41.7201 40.5206 41.2627C41.1385 41.1064 41.728 40.8578 42.2706 40.5241L42.2705 42.7483ZM36.9905 52.5963C36.7931 54.1844 37.2746 55.7824 38.3144 56.9981C37.8882 57.0535 37.4636 57.099 37.0658 57.1345C36.0942 57.2197 35.2888 57.2467 34.9564 57.2467H34.8982C33.4735 57.2183 32.0544 57.0848 30.6495 56.8504C29.0728 56.572 27.6424 56.1374 27.6424 55.4953V51.2851C28.185 51.6175 28.7745 51.8675 29.3924 52.0237C31.2106 52.4811 33.0815 52.6985 34.9564 52.6714C35.3811 52.6714 35.8158 52.6615 36.2547 52.6402C36.5047 52.6288 36.749 52.6132 36.9919 52.5947L36.9905 52.5963ZM46.0702 49.825C47.4807 51.217 47.9097 53.325 47.1582 55.1588C46.4054 56.9912 44.6199 58.1901 42.6368 58.1901C40.6553 58.1901 38.8684 56.9912 38.1168 55.1588C37.364 53.325 37.7929 51.217 39.2034 49.825H46.0702ZM30.0062 38.105C29.3797 38.2385 28.7732 38.4587 28.205 38.7584C27.8457 38.9672 27.6425 39.1689 27.6425 39.3465C27.6425 39.7399 28.394 40.1462 29.607 40.4857C31.3556 40.9232 33.1539 41.1306 34.9565 41.1022C36.759 41.1306 38.5573 40.9232 40.3074 40.4871C41.5204 40.1476 42.2704 39.7414 42.2704 39.3479C42.2704 39.1689 42.0673 38.9672 41.7079 38.7598C41.1397 38.4601 40.5346 38.2399 39.9068 38.1064C39.796 38.2357 39.6809 38.3607 39.5616 38.48C38.3414 39.7016 36.6852 40.3877 34.958 40.3877C33.2308 40.3877 31.5745 39.7016 30.3543 38.48C30.2336 38.3592 30.12 38.2357 30.0092 38.1064L30.0062 38.105ZM38.9905 29.8406C37.7363 28.5864 35.9706 27.9869 34.212 28.2199C32.4549 28.4514 30.9037 29.487 30.0174 31.0225C29.1311 32.558 29.0089 34.4187 29.6879 36.0566C30.3669 37.6944 31.7689 38.9245 33.4821 39.3833C35.1951 39.8421 37.0233 39.4771 38.4294 38.3975C39.837 37.318 40.6609 35.6461 40.6609 33.8735C40.6623 32.3607 40.0615 30.9091 38.9904 29.8394L38.9905 29.8406ZM34.9578 30.0778H34.9564C34.097 30.0778 33.3229 30.5949 32.9948 31.3889C32.6652 32.183 32.847 33.0963 33.455 33.7029C33.4862 33.7327 33.5161 33.7625 33.5487 33.7909V33.7924C32.134 34.3662 31.2078 35.7398 31.2078 37.2668C31.2078 37.3733 31.2504 37.477 31.3257 37.5523C31.4024 37.6276 31.5047 37.6702 31.6112 37.6702H38.3014C38.4079 37.6702 38.5102 37.6276 38.5869 37.5523C38.6622 37.477 38.7048 37.3733 38.7048 37.2668C38.7048 35.7412 37.7801 34.3662 36.3667 33.7924C36.3994 33.7639 36.4307 33.7341 36.4605 33.7043V33.7029C37.067 33.0963 37.2489 32.183 36.9207 31.3889C36.5912 30.5949 35.8172 30.0778 34.9578 30.0778ZM35.8868 31.2696C35.4436 30.8264 34.7476 30.7582 34.2249 31.1062C33.7036 31.4557 33.5004 32.1247 33.7405 32.7057C33.982 33.2852 34.5985 33.6147 35.2135 33.4926C35.83 33.369 36.2732 32.8293 36.2732 32.2014C36.2732 31.852 36.1354 31.5168 35.8868 31.2696ZM32.8769 35.187C32.4237 35.6388 32.1311 36.2282 32.043 36.8632H37.8696C37.7162 35.7566 36.9506 34.8334 35.8923 34.4782C34.8341 34.1231 33.6666 34.3973 32.8769 35.187ZM50.1907 48.4001C49.9677 48.4001 49.7873 48.2197 49.7873 47.9967C49.7873 47.7737 49.9677 47.5919 50.1907 47.5919H51.4478C51.6708 47.5919 51.8512 47.7737 51.8512 47.9967C51.8512 48.2197 51.6708 48.4001 51.4478 48.4001H50.1907ZM52.4279 48.4001C52.2049 48.4001 52.0245 48.2197 52.0245 47.9967C52.0245 47.7737 52.2049 47.5919 52.4279 47.5919H59.3115C59.5345 47.5919 59.7164 47.7737 59.7164 47.9967C59.7164 48.2197 59.5345 48.4001 59.3115 48.4001H52.4279ZM50.1907 46.3973C50.0813 46.4016 49.9762 46.3604 49.8967 46.2837C49.8185 46.2084 49.7745 46.1033 49.7745 45.9939C49.7745 45.8845 49.8185 45.7808 49.8967 45.7041C49.9762 45.6274 50.0813 45.5876 50.1907 45.5905H51.4478C51.5572 45.5876 51.6623 45.6274 51.7418 45.7041C51.8199 45.7808 51.864 45.8845 51.864 45.9939C51.864 46.1033 51.8199 46.2084 51.7418 46.2837C51.6623 46.3604 51.5572 46.4016 51.4478 46.3973H50.1907ZM52.4279 46.3973C52.2091 46.3916 52.0358 46.2126 52.0358 45.9939C52.0358 45.7751 52.2091 45.5976 52.4279 45.5905H59.3115C59.4209 45.5876 59.5274 45.6274 59.6056 45.7041C59.6837 45.7808 59.7277 45.8845 59.7277 45.9939C59.7277 46.1033 59.6837 46.2084 59.6056 46.2837C59.5274 46.3604 59.4209 46.4016 59.3115 46.3973L52.4279 46.3973ZM50.1907 44.3959C49.9677 44.3959 49.7873 44.2155 49.7873 43.9925C49.7873 43.7694 49.9677 43.5876 50.1907 43.5876H51.4478C51.6708 43.5876 51.8512 43.7694 51.8512 43.9925C51.8512 44.2155 51.6708 44.3959 51.4478 44.3959H50.1907ZM52.4279 44.3959C52.2049 44.3959 52.0245 44.2155 52.0245 43.9925C52.0245 43.7694 52.2049 43.5876 52.4279 43.5876H57.9875C58.2105 43.5876 58.3909 43.7694 58.3909 43.9925C58.3909 44.2155 58.2105 44.3959 57.9875 44.3959H52.4279ZM50.1907 42.393C50.0813 42.3973 49.9762 42.3561 49.8967 42.2794C49.8185 42.2041 49.7745 42.099 49.7745 41.9896C49.7745 41.8803 49.8185 41.7766 49.8967 41.6999C49.9762 41.6232 50.0813 41.5834 50.1907 41.5862H51.4478C51.5572 41.5834 51.6623 41.6232 51.7418 41.6999C51.8199 41.7766 51.864 41.8803 51.864 41.9896C51.864 42.099 51.8199 42.2041 51.7418 42.2794C51.6623 42.3561 51.5572 42.3973 51.4478 42.393H50.1907ZM52.4279 42.393C52.2091 42.3874 52.0358 42.2084 52.0358 41.9896C52.0358 41.7723 52.2091 41.5933 52.4279 41.5862H55.4946C55.604 41.5834 55.7091 41.6231 55.7873 41.6998C55.8668 41.7766 55.9108 41.8802 55.9108 41.9896C55.9108 42.099 55.8668 42.2041 55.7873 42.2794C55.7091 42.3561 55.604 42.3973 55.4946 42.393L52.4279 42.393ZM48.2177 48.4258V49.5082C48.2177 49.6147 48.2603 49.717 48.3356 49.7937C48.4123 49.869 48.5146 49.9116 48.6225 49.9116H60.8811C61.1041 49.9116 61.2845 49.7312 61.2845 49.5082V37.3136C61.2845 37.2071 61.2419 37.1048 61.1666 37.0281L59.8442 35.7071L59.8427 31.5678C59.8427 31.3448 59.6623 31.163 59.4393 31.163H47.1793C46.9563 31.163 46.7759 31.3448 46.7759 31.5678V48.0238V48.0224C46.7759 48.2454 46.9563 48.4272 47.1793 48.4272L48.2177 48.4258ZM59.0344 34.9018V31.9714H47.5813V47.619H48.2163V33.0521C48.2163 32.9456 48.2589 32.8419 48.3356 32.7666C48.4109 32.6899 48.5146 32.6473 48.6225 32.6473H56.6127C56.7306 32.6473 56.8414 32.6984 56.9181 32.7879L59.0346 34.9001L59.0344 34.9018ZM60.4762 37.7185H56.6096H56.6111C56.388 37.7185 56.2076 37.5367 56.2076 37.3137V33.4559H49.0258V49.105H60.4775V37.7188L60.4762 37.7185ZM57.016 34.0269L59.9066 36.9104H57.016V34.0269Z" fill="black" stroke="black" stroke-width="0.3"/>
</svg>
