<svg width="86" height="86" viewBox="0 0 86 86" fill="none" xmlns="http://www.w3.org/2000/svg">
<circle cx="43" cy="43" r="43" fill="#38A484" fill-opacity="0.1"/>
<path fill-rule="evenodd" clip-rule="evenodd" d="M38.6802 25.9133C41.5694 25.875 44.4529 26.1846 47.2682 26.8381C49.6205 27.4474 51.078 28.3537 51.0864 29.4147V39.3155V39.3141C53.21 41.4859 56.1886 42.6024 59.2155 42.3609C59.322 42.3524 59.4286 42.3865 59.5095 42.4561C59.5905 42.5257 59.6416 42.6251 59.6487 42.7317C59.6501 42.743 59.6501 42.753 59.6487 42.7629V49.1535C59.6487 49.1677 59.6487 49.1833 59.6473 49.1975C59.555 55.2488 56.4541 57.0568 51.4284 59.9917C50.7395 60.3937 51.7168 59.8212 50.8844 60.3084H50.8829C50.7551 60.3823 50.5974 60.3809 50.471 60.3042C49.7054 59.8553 50.6145 60.3894 49.9327 59.9917C47.4341 58.5343 45.4127 57.3539 43.9996 55.7913C43.0891 55.9021 42.2069 55.9831 41.4257 56.0356C40.1558 56.1251 39.1373 56.1549 38.68 56.1549H38.5606V56.1564C36.2893 56.1123 34.025 55.9177 31.7821 55.5711C28.8915 55.0953 26.2748 54.2245 26.2763 52.6564V52.6478H26.2734V29.4147C26.282 28.3537 27.7393 27.446 30.0916 26.8381C32.907 26.1846 35.7905 25.875 38.6796 25.9133L38.6802 25.9133ZM49.1431 52.6308H52.2198C52.3292 52.6336 52.4357 52.5924 52.5139 52.5171C52.592 52.4404 52.636 52.3368 52.636 52.2274C52.636 52.118 52.592 52.0129 52.5139 51.9376C52.4357 51.8609 52.3292 51.8197 52.2198 51.824H49.1431C49.0352 51.8197 48.9286 51.8609 48.8505 51.9376C48.7724 52.0129 48.7269 52.118 48.7269 52.2274C48.7269 52.3367 48.7724 52.4404 48.8505 52.5171C48.9286 52.5924 49.0352 52.6336 49.1431 52.6308ZM47.3264 48.229V46.2957C47.3264 44.4434 48.8278 42.942 50.6801 42.942C52.5324 42.942 54.0338 44.4434 54.0338 46.2957V48.229H54.217V46.2957C54.1957 44.3582 52.619 42.7971 50.6815 42.7971C48.744 42.7971 47.1673 44.3582 47.1474 46.2957V48.229H47.3264ZM53.2271 48.229V46.2957C53.1859 44.9193 52.0581 43.8255 50.6816 43.8255C49.3052 43.8255 48.1774 44.9193 48.1362 46.2957V48.229H53.2271ZM46.3365 48.229C45.7968 48.256 45.3735 48.7006 45.3721 49.2403V54.2941C45.3735 55.3581 46.2357 56.2203 47.2996 56.2217H54.0611C55.125 56.2203 55.9872 55.3581 55.9887 54.2941V49.2403C55.9887 48.7005 55.5639 48.2559 55.0242 48.229V46.2957C55.0015 43.9136 53.064 41.9946 50.682 41.9946C48.2999 41.9946 46.3624 43.9137 46.3409 46.2957V48.229H46.3365ZM54.9715 49.0358H46.3889C46.2753 49.0358 46.1829 49.1281 46.1829 49.2403V54.2942C46.1844 54.9121 46.6844 55.4121 47.3037 55.4135H54.0608C54.6787 55.4121 55.1801 54.9121 55.1815 54.2942V49.2403C55.1801 49.1281 55.0892 49.0358 54.9755 49.0358H54.9715ZM50.274 39.3129V38.4706H50.2754C49.3607 39.0814 48.3393 39.5146 47.2655 39.7475C44.4501 40.401 41.5666 40.7106 38.6775 40.6723C35.7883 40.7106 32.9048 40.401 30.0895 39.7475C29.0142 39.5146 27.9929 39.0814 27.0796 38.4706V44.9011C27.0824 45.5517 28.3097 46.1937 30.2912 46.7065C33.0398 47.3414 35.8567 47.6426 38.6774 47.6028C39.2882 47.6028 39.8635 47.5928 40.4032 47.5715C40.8365 47.5545 41.2725 47.5318 41.7101 47.5019V42.7634C41.7101 42.5404 41.8905 42.36 42.1135 42.36C42.1291 42.36 42.1447 42.3614 42.1604 42.3628C45.1831 42.5986 48.156 41.4821 50.2753 39.3145L50.274 39.3129ZM41.7129 48.3158C41.3052 48.3428 40.8791 48.3641 40.4345 48.3811C39.8379 48.4039 39.2527 48.4152 38.6803 48.4152C35.7911 48.4536 32.9075 48.1439 30.0923 47.4905C29.0184 47.259 27.9957 46.8257 27.0823 46.2135V52.6524C27.0823 53.6865 29.3792 54.3541 31.9132 54.7717V54.7732C34.1164 55.1141 36.3394 55.3058 38.5681 55.3484H38.6832C39.1363 55.3484 40.1406 55.32 41.3749 55.2334C42.0085 55.1893 42.6974 55.1297 43.4033 55.053C42.3437 53.5899 41.7528 51.7675 41.7187 49.161V48.3158L41.7129 48.3158ZM50.3409 59.2943C50.2599 59.2475 50.2955 59.2674 50.3409 59.2943V59.2943ZM50.3409 59.2943L50.6818 59.4946L51.0227 59.2943C55.8067 56.5003 58.7598 54.7773 58.8453 49.1809V49.1539V43.1921C55.8083 43.3128 52.8565 42.1764 50.6835 40.05C48.5116 42.1765 45.5584 43.3128 42.5202 43.1921V49.1539C42.5969 54.7732 45.5486 56.4961 50.3427 59.2946L50.3409 59.2943ZM51.0227 59.2943C51.0838 59.2588 51.1435 59.2233 51.0227 59.2943V59.2943ZM35.4049 51.3598C34.2117 51.2717 33.0938 51.1368 32.0853 50.9621H32.0867C31.1805 50.8129 30.2856 50.5998 29.4092 50.3243C29.3069 50.2845 29.1918 50.2902 29.0924 50.3371C28.993 50.3854 28.9163 50.4706 28.8822 50.5757C28.8481 50.6808 28.8595 50.7959 28.912 50.8925C28.9646 50.9905 29.0541 51.0615 29.1606 51.0899C30.0739 51.3768 31.0072 51.5998 31.9518 51.7547C32.9859 51.9336 34.1279 52.0714 35.3495 52.1623C35.4575 52.1737 35.5654 52.1396 35.6478 52.07C35.7316 51.999 35.7828 51.8981 35.7899 51.7902C35.7984 51.6822 35.7615 51.5743 35.689 51.4933C35.6166 51.4123 35.5143 51.364 35.4064 51.3584L35.4049 51.3598ZM35.4049 43.6198C34.2117 43.5317 33.0938 43.3954 32.0853 43.2221H32.0867C31.1805 43.0729 30.2856 42.8598 29.4092 42.5843C29.3069 42.5459 29.1918 42.5502 29.0924 42.5971C28.993 42.6454 28.9163 42.732 28.8822 42.8371C28.8481 42.9408 28.8595 43.0559 28.912 43.1525C28.9646 43.2505 29.0541 43.3215 29.1606 43.3499C30.0739 43.6383 31.0058 43.8612 31.9504 44.0189C32.9845 44.1979 34.1265 44.3357 35.3481 44.4266C35.4575 44.4365 35.5654 44.4039 35.6478 44.3328C35.7316 44.2632 35.7828 44.1624 35.7899 44.053C35.797 43.9451 35.7615 43.8385 35.689 43.7561C35.6166 43.6752 35.5143 43.6269 35.4049 43.6226L35.4049 43.6198ZM47.9518 34.8456C47.0754 35.1198 46.1805 35.3328 45.2743 35.4834C44.2657 35.6581 43.1492 35.7931 41.9547 35.8826V35.8811C41.7387 35.9024 41.5768 36.0928 41.5924 36.3101C41.6081 36.5289 41.7941 36.6951 42.0115 36.6851C43.2345 36.5942 44.3779 36.455 45.4092 36.2774H45.4106C46.3552 36.1212 47.2871 35.8982 48.2004 35.6113C48.4007 35.5345 48.5058 35.3144 48.4405 35.1098C48.3737 34.9067 48.1592 34.7902 47.9518 34.8456ZM35.4049 35.8811C34.2117 35.7931 33.0938 35.6567 32.0853 35.482H32.0867C31.1805 35.3328 30.2856 35.1198 29.4092 34.8456C29.3069 34.8058 29.1918 34.8101 29.0924 34.8584C28.9916 34.9053 28.9163 34.9919 28.8822 35.097C28.8481 35.2022 28.858 35.3158 28.9106 35.4138C28.9631 35.5104 29.0541 35.5814 29.1606 35.6112C30.0739 35.8982 31.0058 36.1198 31.9504 36.276C32.9845 36.455 34.1265 36.5928 35.3481 36.6837C35.4575 36.695 35.5654 36.661 35.6478 36.5913C35.7316 36.5203 35.7828 36.4195 35.7899 36.3115C35.797 36.2021 35.7615 36.0956 35.689 36.0146C35.6166 35.9337 35.5143 35.8854 35.4049 35.8797L35.4049 35.8811ZM38.6805 50.2917C37.922 50.2917 37.2685 50.8286 37.1222 51.5729C36.9745 52.3173 37.3736 53.0616 38.0753 53.3513C38.7756 53.6411 39.5839 53.3954 40.0057 52.7633C40.4262 52.1326 40.3424 51.2917 39.8055 50.7562C39.5072 50.4564 39.1023 50.2888 38.6804 50.2903L38.6805 50.2917ZM39.2344 51.3301C38.9702 51.0659 38.5555 51.0247 38.2444 51.232C37.9333 51.4409 37.8125 51.8386 37.956 52.1838C38.0995 52.5289 38.4674 52.725 38.8339 52.6525C39.2003 52.5787 39.4646 52.2576 39.4631 51.8826C39.4646 51.6752 39.3807 51.4763 39.2344 51.3301ZM38.6805 44.9239C39.054 44.9253 39.3751 44.6611 39.4489 44.2946C39.5214 43.9281 39.3254 43.5617 38.9802 43.4182C38.6364 43.2761 38.2373 43.3954 38.0299 43.7065C37.8225 44.0162 37.8623 44.431 38.1265 44.6952C38.2728 44.8415 38.4731 44.9239 38.6805 44.9239ZM39.8055 45.2662C40.341 44.7293 40.4234 43.8898 40.0029 43.2591C39.581 42.6284 38.7728 42.3827 38.0725 42.6725C37.3708 42.9637 36.9731 43.708 37.1208 44.4523C37.2685 45.1966 37.922 45.7321 38.6805 45.7321C39.1024 45.7321 39.5072 45.5645 39.8055 45.2662ZM38.6805 34.8117C37.922 34.8117 37.2685 35.3472 37.1208 36.0915C36.9717 36.8358 37.3708 37.5815 38.0711 37.8713C38.7728 38.1611 39.581 37.9167 40.0029 37.2861C40.4248 36.6539 40.341 35.8145 39.8055 35.2775C39.5072 34.9778 39.1024 34.8102 38.6805 34.8117ZM39.2344 35.8486C38.9702 35.583 38.5555 35.5432 38.2444 35.7506C37.9333 35.958 37.8125 36.3571 37.956 36.7023C38.0995 37.0489 38.4659 37.2449 38.8339 37.1711C39.2003 37.0986 39.4646 36.7762 39.4631 36.4026C39.4631 36.1938 39.3807 35.9949 39.2344 35.8486ZM50.2784 37.1668V30.7362C49.3651 31.347 48.3438 31.7803 47.2685 32.0132C44.4532 32.6652 41.5696 32.9763 38.6805 32.9379C35.7913 32.9763 32.9078 32.6652 30.0925 32.0132C29.0172 31.7803 27.9959 31.347 27.0826 30.7362V37.1668C27.0854 37.8174 28.3127 38.4594 30.2942 38.9722C33.0442 39.6071 35.8597 39.9082 38.6804 39.8685C41.5014 39.9082 44.3168 39.6071 47.0655 38.9722C49.0484 38.4594 50.2756 37.8159 50.2784 37.1668ZM50.2784 29.4268V29.4225C50.2756 28.7719 49.0483 28.1299 47.0654 27.6171C44.3168 26.9836 41.5014 26.6825 38.6803 26.7223C35.8593 26.6825 33.0425 26.9822 30.2927 27.6171C28.3097 28.1299 27.0824 28.7734 27.081 29.4225V29.4268C27.0839 30.0774 28.3111 30.7194 30.2927 31.2322C33.0427 31.8671 35.8581 32.1682 38.6788 32.1285C41.4999 32.1682 44.3167 31.8685 47.065 31.2336C49.0494 30.7194 50.2752 30.0759 50.2781 29.4267L50.2784 29.4268Z" fill="black"/>
<path d="M50.3409 59.2943C50.2599 59.2475 50.2955 59.2674 50.3409 59.2943ZM50.3409 59.2943L50.6818 59.4946L51.0227 59.2943M50.3409 59.2943L50.3427 59.2946C45.5486 56.4961 42.5969 54.7732 42.5202 49.1539V43.1921C45.5584 43.3128 48.5116 42.1765 50.6835 40.05C52.8565 42.1764 55.8083 43.3128 58.8453 43.1921V49.1539V49.1809C58.7598 54.7773 55.8067 56.5003 51.0227 59.2943M51.0227 59.2943C51.0838 59.2588 51.1435 59.2233 51.0227 59.2943ZM38.6802 25.9133C41.5694 25.875 44.4529 26.1846 47.2682 26.8381C49.6205 27.4474 51.078 28.3537 51.0864 29.4147V39.3155V39.3141C53.21 41.4859 56.1886 42.6024 59.2155 42.3609C59.322 42.3524 59.4286 42.3865 59.5095 42.4561C59.5905 42.5257 59.6416 42.6251 59.6487 42.7317C59.6501 42.743 59.6501 42.753 59.6487 42.7629V49.1535C59.6487 49.1677 59.6487 49.1833 59.6473 49.1975C59.555 55.2488 56.4541 57.0568 51.4284 59.9917C50.7395 60.3937 51.7168 59.8212 50.8844 60.3084H50.8829C50.7551 60.3823 50.5974 60.3809 50.471 60.3042C49.7054 59.8553 50.6145 60.3894 49.9327 59.9917C47.4341 58.5343 45.4127 57.3539 43.9996 55.7913C43.0891 55.9021 42.2069 55.9831 41.4257 56.0356C40.1558 56.1251 39.1373 56.1549 38.68 56.1549H38.5606V56.1564C36.2893 56.1123 34.025 55.9177 31.7821 55.5711C28.8915 55.0953 26.2748 54.2245 26.2763 52.6564V52.6478H26.2734V29.4147C26.282 28.3537 27.7393 27.446 30.0916 26.8381C32.907 26.1846 35.7905 25.875 38.6796 25.9133L38.6802 25.9133ZM49.1431 52.6308H52.2198C52.3292 52.6336 52.4357 52.5924 52.5139 52.5171C52.592 52.4404 52.636 52.3368 52.636 52.2274C52.636 52.118 52.592 52.0129 52.5139 51.9376C52.4357 51.8609 52.3292 51.8197 52.2198 51.824H49.1431C49.0352 51.8197 48.9286 51.8609 48.8505 51.9376C48.7724 52.0129 48.7269 52.118 48.7269 52.2274C48.7269 52.3367 48.7724 52.4404 48.8505 52.5171C48.9286 52.5924 49.0352 52.6336 49.1431 52.6308ZM47.3264 48.229V46.2957C47.3264 44.4434 48.8278 42.942 50.6801 42.942C52.5324 42.942 54.0338 44.4434 54.0338 46.2957V48.229H54.217V46.2957C54.1957 44.3582 52.619 42.7971 50.6815 42.7971C48.744 42.7971 47.1673 44.3582 47.1474 46.2957V48.229H47.3264ZM53.2271 48.229V46.2957C53.1859 44.9193 52.0581 43.8255 50.6816 43.8255C49.3052 43.8255 48.1774 44.9193 48.1362 46.2957V48.229H53.2271ZM46.3365 48.229C45.7968 48.256 45.3735 48.7006 45.3721 49.2403V54.2941C45.3735 55.3581 46.2357 56.2203 47.2996 56.2217H54.0611C55.125 56.2203 55.9872 55.3581 55.9887 54.2941V49.2403C55.9887 48.7005 55.5639 48.2559 55.0242 48.229V46.2957C55.0015 43.9136 53.064 41.9946 50.682 41.9946C48.2999 41.9946 46.3624 43.9137 46.3409 46.2957V48.229H46.3365ZM54.9715 49.0358H46.3889C46.2753 49.0358 46.1829 49.1281 46.1829 49.2403V54.2942C46.1844 54.9121 46.6844 55.4121 47.3037 55.4135H54.0608C54.6787 55.4121 55.1801 54.9121 55.1815 54.2942V49.2403C55.1801 49.1281 55.0892 49.0358 54.9755 49.0358H54.9715ZM50.274 39.3129V38.4706H50.2754C49.3607 39.0814 48.3393 39.5146 47.2655 39.7475C44.4501 40.401 41.5666 40.7106 38.6775 40.6723C35.7883 40.7106 32.9048 40.401 30.0895 39.7475C29.0142 39.5146 27.9929 39.0814 27.0796 38.4706V44.9011C27.0824 45.5517 28.3097 46.1937 30.2912 46.7065C33.0398 47.3414 35.8567 47.6426 38.6774 47.6028C39.2882 47.6028 39.8635 47.5928 40.4032 47.5715C40.8365 47.5545 41.2725 47.5318 41.7101 47.5019V42.7634C41.7101 42.5404 41.8905 42.36 42.1135 42.36C42.1291 42.36 42.1447 42.3614 42.1604 42.3628C45.1831 42.5986 48.156 41.4821 50.2753 39.3145L50.274 39.3129ZM41.7129 48.3158C41.3052 48.3428 40.8791 48.3641 40.4345 48.3811C39.8379 48.4039 39.2527 48.4152 38.6803 48.4152C35.7911 48.4536 32.9075 48.1439 30.0923 47.4905C29.0184 47.259 27.9957 46.8257 27.0823 46.2135V52.6524C27.0823 53.6865 29.3792 54.3541 31.9132 54.7717V54.7732C34.1164 55.1141 36.3394 55.3058 38.5681 55.3484H38.6832C39.1363 55.3484 40.1406 55.32 41.3749 55.2334C42.0085 55.1893 42.6974 55.1297 43.4033 55.053C42.3437 53.5899 41.7528 51.7675 41.7187 49.161V48.3158L41.7129 48.3158ZM35.4049 51.3598C34.2117 51.2717 33.0938 51.1368 32.0853 50.9621H32.0867C31.1805 50.8129 30.2856 50.5998 29.4092 50.3243C29.3069 50.2845 29.1918 50.2902 29.0924 50.3371C28.993 50.3854 28.9163 50.4706 28.8822 50.5757C28.8481 50.6808 28.8595 50.7959 28.912 50.8925C28.9646 50.9905 29.0541 51.0615 29.1606 51.0899C30.0739 51.3768 31.0072 51.5998 31.9518 51.7547C32.9859 51.9336 34.1279 52.0714 35.3495 52.1623C35.4575 52.1737 35.5654 52.1396 35.6478 52.07C35.7316 51.999 35.7828 51.8981 35.7899 51.7902C35.7984 51.6822 35.7615 51.5743 35.689 51.4933C35.6166 51.4123 35.5143 51.364 35.4064 51.3584L35.4049 51.3598ZM35.4049 43.6198C34.2117 43.5317 33.0938 43.3954 32.0853 43.2221H32.0867C31.1805 43.0729 30.2856 42.8598 29.4092 42.5843C29.3069 42.5459 29.1918 42.5502 29.0924 42.5971C28.993 42.6454 28.9163 42.732 28.8822 42.8371C28.8481 42.9408 28.8595 43.0559 28.912 43.1525C28.9646 43.2505 29.0541 43.3215 29.1606 43.3499C30.0739 43.6383 31.0058 43.8612 31.9504 44.0189C32.9845 44.1979 34.1265 44.3357 35.3481 44.4266C35.4575 44.4365 35.5654 44.4039 35.6478 44.3328C35.7316 44.2632 35.7828 44.1624 35.7899 44.053C35.797 43.9451 35.7615 43.8385 35.689 43.7561C35.6166 43.6752 35.5143 43.6269 35.4049 43.6226L35.4049 43.6198ZM47.9518 34.8456C47.0754 35.1198 46.1805 35.3328 45.2743 35.4834C44.2657 35.6581 43.1492 35.7931 41.9547 35.8826V35.8811C41.7387 35.9024 41.5768 36.0928 41.5924 36.3101C41.6081 36.5289 41.7941 36.6951 42.0115 36.6851C43.2345 36.5942 44.3779 36.455 45.4092 36.2774H45.4106C46.3552 36.1212 47.2871 35.8982 48.2004 35.6113C48.4007 35.5345 48.5058 35.3144 48.4405 35.1098C48.3737 34.9067 48.1592 34.7902 47.9518 34.8456ZM35.4049 35.8811C34.2117 35.7931 33.0938 35.6567 32.0853 35.482H32.0867C31.1805 35.3328 30.2856 35.1198 29.4092 34.8456C29.3069 34.8058 29.1918 34.8101 29.0924 34.8584C28.9916 34.9053 28.9163 34.9919 28.8822 35.097C28.8481 35.2022 28.858 35.3158 28.9106 35.4138C28.9631 35.5104 29.0541 35.5814 29.1606 35.6112C30.0739 35.8982 31.0058 36.1198 31.9504 36.276C32.9845 36.455 34.1265 36.5928 35.3481 36.6837C35.4575 36.695 35.5654 36.661 35.6478 36.5913C35.7316 36.5203 35.7828 36.4195 35.7899 36.3115C35.797 36.2021 35.7615 36.0956 35.689 36.0146C35.6166 35.9337 35.5143 35.8854 35.4049 35.8797L35.4049 35.8811ZM38.6805 50.2917C37.922 50.2917 37.2685 50.8286 37.1222 51.5729C36.9745 52.3173 37.3736 53.0616 38.0753 53.3513C38.7756 53.6411 39.5839 53.3954 40.0057 52.7633C40.4262 52.1326 40.3424 51.2917 39.8055 50.7562C39.5072 50.4564 39.1023 50.2888 38.6804 50.2903L38.6805 50.2917ZM39.2344 51.3301C38.9702 51.0659 38.5555 51.0247 38.2444 51.232C37.9333 51.4409 37.8125 51.8386 37.956 52.1838C38.0995 52.5289 38.4674 52.725 38.8339 52.6525C39.2003 52.5787 39.4646 52.2576 39.4631 51.8826C39.4646 51.6752 39.3807 51.4763 39.2344 51.3301ZM38.6805 44.9239C39.054 44.9253 39.3751 44.6611 39.4489 44.2946C39.5214 43.9281 39.3254 43.5617 38.9802 43.4182C38.6364 43.2761 38.2373 43.3954 38.0299 43.7065C37.8225 44.0162 37.8623 44.431 38.1265 44.6952C38.2728 44.8415 38.4731 44.9239 38.6805 44.9239ZM39.8055 45.2662C40.341 44.7293 40.4234 43.8898 40.0029 43.2591C39.581 42.6284 38.7728 42.3827 38.0725 42.6725C37.3708 42.9637 36.9731 43.708 37.1208 44.4523C37.2685 45.1966 37.922 45.7321 38.6805 45.7321C39.1024 45.7321 39.5072 45.5645 39.8055 45.2662ZM38.6805 34.8117C37.922 34.8117 37.2685 35.3472 37.1208 36.0915C36.9717 36.8358 37.3708 37.5815 38.0711 37.8713C38.7728 38.1611 39.581 37.9167 40.0029 37.2861C40.4248 36.6539 40.341 35.8145 39.8055 35.2775C39.5072 34.9778 39.1024 34.8102 38.6805 34.8117ZM39.2344 35.8486C38.9702 35.583 38.5555 35.5432 38.2444 35.7506C37.9333 35.958 37.8125 36.3571 37.956 36.7023C38.0995 37.0489 38.4659 37.2449 38.8339 37.1711C39.2003 37.0986 39.4646 36.7762 39.4631 36.4026C39.4631 36.1938 39.3807 35.9949 39.2344 35.8486ZM50.2784 37.1668V30.7362C49.3651 31.347 48.3438 31.7803 47.2685 32.0132C44.4532 32.6652 41.5696 32.9763 38.6805 32.9379C35.7913 32.9763 32.9078 32.6652 30.0925 32.0132C29.0172 31.7803 27.9959 31.347 27.0826 30.7362V37.1668C27.0854 37.8174 28.3127 38.4594 30.2942 38.9722C33.0442 39.6071 35.8597 39.9082 38.6804 39.8685C41.5014 39.9082 44.3168 39.6071 47.0655 38.9722C49.0484 38.4594 50.2756 37.8159 50.2784 37.1668ZM50.2784 29.4268V29.4225C50.2756 28.7719 49.0483 28.1299 47.0654 27.6171C44.3168 26.9836 41.5014 26.6825 38.6803 26.7223C35.8593 26.6825 33.0425 26.9822 30.2927 27.6171C28.3097 28.1299 27.0824 28.7734 27.081 29.4225V29.4268C27.0839 30.0774 28.3111 30.7194 30.2927 31.2322C33.0427 31.8671 35.8581 32.1682 38.6788 32.1285C41.4999 32.1682 44.3167 31.8685 47.065 31.2336C49.0494 30.7194 50.2752 30.0759 50.2781 29.4267L50.2784 29.4268Z" stroke="black" stroke-width="0.5"/>
</svg>
