<svg width="86" height="86" viewBox="0 0 86 86" fill="none" xmlns="http://www.w3.org/2000/svg">
<circle cx="43" cy="43" r="43" fill="#38A484" fill-opacity="0.1"/>
<path d="M59.4528 50.428H54.8532C54.4116 50.428 54.0532 50.7864 54.0532 51.228V52.728H49.7548V49.406H52.4816C52.5124 49.406 52.5428 49.404 52.5732 49.4004C56.9512 48.8948 60.2528 45.1856 60.2528 40.7724C60.2528 36.0196 56.4156 32.1464 51.6768 32.0864C51.272 27.6704 47.5472 24.1992 43.0268 24.1992C38.514 24.1992 34.794 27.658 34.3784 32.0868C29.6384 32.1448 25.8008 36.0192 25.8008 40.7728C25.8008 45.1864 29.1024 48.896 33.4804 49.4008C33.5108 49.4044 33.5416 49.4064 33.572 49.4064H36.2988V52.7284H32.0004V51.2284C32.0004 50.7868 31.642 50.4284 31.2004 50.4284H26.6008C26.1592 50.4284 25.8008 50.7868 25.8008 51.2284V55.828C25.8008 56.2696 26.1592 56.628 26.6008 56.628H31.2004C31.642 56.628 32.0004 56.2696 32.0004 55.828V54.3284H37.0988C37.5404 54.3284 37.8988 53.97 37.8988 53.5284V49.4064H42.2268V55.5996H40.7268C40.2852 55.5996 39.9268 55.958 39.9268 56.3996V60.9992C39.9268 61.4408 40.2852 61.7992 40.7268 61.7992H45.3268C45.7684 61.7992 46.1268 61.4408 46.1268 60.9992V56.3996C46.1268 55.958 45.7684 55.5996 45.3268 55.5996H43.8268V49.4064H48.1548V53.5284C48.1548 53.97 48.5132 54.3284 48.9548 54.3284H54.0536V55.828C54.0536 56.2696 54.412 56.628 54.8536 56.628H59.4532C59.8948 56.628 60.2532 56.2696 60.2532 55.828V51.228C60.2528 50.7864 59.8948 50.428 59.4528 50.428ZM30.4004 55.0276H27.4008V52.028H30.4004V55.0276ZM44.5268 60.1992H41.5268V57.1996H44.5264L44.5268 60.1992ZM27.4008 40.7728C27.4008 36.8648 30.58 33.686 34.4876 33.686C34.6856 33.686 34.8816 33.6944 35.0752 33.7104C35.2984 33.7288 35.518 33.6392 35.6828 33.4876C35.8472 33.3364 35.9408 33.1096 35.9408 32.886C35.94 28.978 39.1192 25.7992 43.0268 25.7992C46.9344 25.7992 50.1136 28.978 50.1136 32.9128C50.1136 33.1364 50.2072 33.3496 50.3716 33.5012C50.536 33.6528 50.7556 33.7296 50.9792 33.71C51.1728 33.6944 51.3688 33.6856 51.5668 33.6856C55.4744 33.6856 58.6536 36.8644 58.6536 40.7724C58.6536 44.358 55.9836 47.374 52.4352 47.806H33.6192C30.0708 47.3744 27.4008 44.358 27.4008 40.7728ZM58.6528 55.0276H55.6532V52.028H58.6528V55.0276Z" fill="black"/>
</svg>
