<svg width="87" height="86" viewBox="0 0 87 86" fill="none" xmlns="http://www.w3.org/2000/svg">
<circle cx="43.8516" cy="43" r="43" fill="#38A484" fill-opacity="0.1"/>
<path fill-rule="evenodd" clip-rule="evenodd" d="M47.7622 37.3231C47.7622 37.1839 47.6528 37.0376 47.4497 36.8828C46.7295 36.3387 45.0377 35.9126 42.3646 35.9126C39.6884 35.9126 38.0024 36.3359 37.2864 36.8785C36.8702 37.1938 36.8759 37.4495 37.2878 37.762C38.008 38.3075 39.6969 38.7336 42.3645 38.7336C45.0435 38.7336 46.7325 38.3103 47.4511 37.7663C47.6571 37.6128 47.7622 37.4708 47.7622 37.3231ZM41.224 25.9125C41.4314 25.8884 41.6118 26.0503 41.6118 26.2577V32.5988C41.6118 32.7849 41.4669 32.9355 41.2836 32.9468C39.3021 33.1755 37.5451 34.0562 36.2255 35.3758C34.9058 36.6954 34.0252 38.4525 33.7979 40.434C33.7879 40.6172 33.636 40.7621 33.4499 40.7621L27.1088 40.7607C26.9028 40.7607 26.7423 40.5888 26.7636 40.3658C27.0023 36.5989 28.6912 33.1669 31.2709 30.5887C33.8746 27.985 37.3843 26.2489 41.224 25.9125ZM40.9157 32.2933C36.8645 32.887 33.7383 36.0122 33.1459 40.0631L27.4826 40.0645C28.102 33.0631 33.9557 27.4267 40.9157 26.6412V32.2933ZM41.2836 50.0915C41.4669 50.1014 41.6118 50.2534 41.6118 50.4395V55.2038C41.6118 55.4098 41.437 55.5717 41.2197 55.549C37.7907 55.272 34.7099 53.7663 32.4172 51.4723C30.1231 49.1797 28.6175 46.0988 28.3404 42.6697C28.3177 42.451 28.4796 42.2777 28.6856 42.2777H33.45C33.6361 42.2777 33.7866 42.4226 33.798 42.6058C34.0267 44.5873 34.9074 46.3444 36.2256 47.664C37.5452 48.9822 39.3021 49.8628 41.2836 50.0915ZM40.9157 54.8216V50.7435C36.8645 50.1497 33.7383 47.0235 33.1459 42.9736H29.0663C29.7396 49.2009 34.687 54.1482 40.9157 54.8216ZM43.5194 55.5489C43.3121 55.5745 43.1288 55.4125 43.1288 55.2037L43.1274 50.4383C43.1274 50.2536 43.2723 50.1016 43.4555 50.0903C45.4371 49.8616 47.1941 48.9809 48.5137 47.6627C49.8333 46.3431 50.714 44.586 50.9413 42.6045C50.9512 42.4213 51.1032 42.2764 51.2893 42.2764H56.0537C56.2596 42.2764 56.4201 42.4511 56.3988 42.667C56.261 44.1798 55.9542 45.5122 55.3775 46.9027C58.4968 47.3828 60.8477 50.0788 60.8477 53.2878C60.8477 56.8559 57.9542 59.7496 54.3859 59.7496C51.224 59.7496 48.5579 57.4683 48.0222 54.4114C46.5989 55.0378 45.0835 55.4225 43.5194 55.5489ZM43.8234 50.7435V54.8216C45.2538 54.6668 46.643 54.2833 47.9383 53.6909C47.704 49.8629 50.8219 46.6782 54.6543 46.8346C55.187 45.6059 55.5279 44.3147 55.6728 42.9739L51.5946 42.9724C51.0009 47.0237 47.8747 50.1496 43.8234 50.7435ZM43.4555 32.9467C43.2723 32.9368 43.1274 32.7848 43.1274 32.5987L43.1288 27.8344C43.1288 27.6284 43.3035 27.4665 43.5209 27.4892C46.9499 27.7662 50.0307 29.2718 52.3234 31.5659C54.616 33.8585 56.1216 36.9394 56.4001 40.3685C56.4229 40.5858 56.2609 40.7605 56.055 40.7605L51.2895 40.7591C51.1049 40.7591 50.9529 40.6142 50.9415 40.4309C50.7128 38.4494 49.8321 36.6924 48.5139 35.3728C47.1943 34.0546 45.437 33.174 43.4555 32.9467ZM43.8234 28.2151C50.0522 28.8884 54.9994 33.8358 55.6714 40.0631L51.5947 40.0645C51.001 36.0132 47.8747 32.8871 43.8234 32.2932V28.2151ZM54.8874 49.8416V57.0049C54.8874 57.306 55.261 57.4864 55.4982 57.2322L58.1318 54.6228C58.4556 54.3018 57.967 53.8089 57.6431 54.1313L55.5834 56.1711V49.8416C55.582 49.3828 54.8874 49.3828 54.8874 49.8416ZM53.8746 57.0049V49.8416C53.8746 49.5405 53.5011 49.3601 53.2638 49.6129L50.6303 52.2223C50.3064 52.5433 50.7951 53.0363 51.119 52.7138L53.1786 50.674V57.0049C53.1786 57.4637 53.8746 57.4637 53.8746 57.0049ZM58.4641 49.2122C56.2127 46.9608 52.5623 46.9608 50.3106 49.2122C48.0592 51.4636 48.0592 55.114 50.3106 57.3656C52.562 59.6173 56.2124 59.6171 58.4641 57.3656C60.7155 55.1156 60.7155 51.4638 58.4641 49.2122ZM48.4557 37.2816L48.4586 45.7136C48.4586 46.3699 47.7214 46.9239 46.5296 47.2889C44.2171 47.9963 40.5212 47.9963 38.2099 47.2889C37.0182 46.9239 36.281 46.3699 36.281 45.7136V37.3231C36.281 36.9609 36.4798 36.6171 36.8676 36.3245C37.69 35.7024 39.5253 35.218 42.3647 35.218C45.2014 35.218 47.0422 35.7052 47.8676 36.3302C48.2455 36.6129 48.4401 36.9393 48.4557 37.2816ZM36.9772 38.3924C37.8479 38.9805 39.6505 39.4294 42.3663 39.4294C45.0907 39.4294 46.8932 38.9833 47.7641 38.3981V40.1197C47.7641 40.4351 47.2158 40.7604 46.3294 41.0317C44.1575 41.6964 40.5836 41.6964 38.412 41.0317C37.5256 40.7604 36.9773 40.4351 36.9773 40.1197L36.9772 38.3924ZM39.8223 46.2957C41.5027 46.6238 43.1775 46.6238 44.858 46.2957C45.3068 46.2076 45.1733 45.5258 44.7244 45.6139C43.135 45.9235 41.544 45.9235 39.9546 45.6139C39.5072 45.5258 39.3735 46.2076 39.8223 46.2957ZM39.8223 43.4747C41.5027 43.8028 43.1775 43.8028 44.858 43.4747C45.3068 43.3866 45.1733 42.7048 44.7244 42.7929C43.135 43.1025 41.544 43.1025 39.9546 42.7929C39.5072 42.7048 39.3735 43.3866 39.8223 43.4747ZM39.8223 40.6523C41.5027 40.9804 43.1775 40.9804 44.858 40.6523C45.3068 40.5642 45.1733 39.8824 44.7244 39.9704C43.135 40.2801 41.544 40.2801 39.9546 39.9704C39.5072 39.8838 39.3735 40.5656 39.8223 40.6523ZM47.7627 43.942C45.5994 45.3809 39.1405 45.3809 36.9758 43.942V45.7133C36.9758 46.0287 37.5241 46.354 38.4104 46.6253C40.5823 47.29 44.1563 47.29 46.3279 46.6253C47.2143 46.354 47.7626 46.0287 47.7626 45.7133L47.7627 43.942ZM47.7627 41.1452C45.5994 42.5841 39.1405 42.5841 36.9758 41.1452V42.9165C36.9758 43.2318 37.5241 43.5571 38.4104 43.8284C40.5823 44.4932 44.1563 44.4932 46.3279 43.8284C47.2143 43.5571 47.7626 43.2318 47.7626 42.9165L47.7627 41.1452Z" fill="black" stroke="black" stroke-width="0.3"/>
</svg>
