<svg width="96" height="96" viewBox="0 0 86 86" fill="none" xmlns="http://www.w3.org/2000/svg">
<circle cx="43" cy="43" r="43" fill="#38A484" fill-opacity="0.1"/>
<path d="M36.1382 57.8184C36.2267 58.0972 36.0727 58.3947 35.7943 58.4836C35.2909 58.6438 34.7042 58.7741 34.0503 58.8708C34.0242 58.8747 33.9981 58.8766 33.9723 58.8766C33.7142 58.8766 33.4881 58.6875 33.4495 58.4247C33.4066 58.1354 33.6062 57.8664 33.8955 57.8235C34.4932 57.735 35.0243 57.6176 35.4738 57.4745C35.7518 57.3857 36.0497 57.5397 36.1382 57.8184ZM28.8089 57.8231C28.2112 57.7346 27.6802 57.6173 27.2306 57.4742C26.9518 57.3857 26.6543 57.5397 26.5658 57.8184C26.4773 58.0972 26.6313 58.3947 26.9097 58.4832C27.4135 58.6435 27.9999 58.7737 28.6537 58.8704C28.6799 58.8743 28.706 58.8762 28.7317 58.8762C28.9898 58.8762 29.216 58.6871 29.2546 58.4243C29.2978 58.135 29.0978 57.866 28.8089 57.8231ZM33.9719 54.994C33.9977 54.994 34.0238 54.9921 34.0499 54.9882C34.7038 54.8915 35.2906 54.7613 35.7939 54.601C36.0727 54.5125 36.2267 54.2146 36.1378 53.9358C36.0493 53.6571 35.7514 53.5031 35.473 53.5919C35.0235 53.735 34.4924 53.8524 33.8947 53.9409C33.6054 53.9838 33.4058 54.2528 33.4487 54.5421C33.4877 54.8049 33.7138 54.994 33.9719 54.994ZM26.9097 54.601C27.4135 54.7613 27.9999 54.8915 28.6537 54.9882C28.6799 54.9921 28.706 54.994 28.7317 54.994C28.9898 54.994 29.216 54.8049 29.2546 54.5421C29.2974 54.2528 29.0978 53.9838 28.8085 53.9409C28.2108 53.8524 27.6798 53.735 27.2302 53.5919C26.9514 53.5034 26.6539 53.6575 26.5654 53.9362C26.4769 54.215 26.6309 54.5125 26.9097 54.601ZM30.0312 54.647C30.0312 53.9187 30.6235 53.3264 31.3518 53.3264C32.0801 53.3264 32.6724 53.9187 32.6724 54.647C32.6724 55.3753 32.0801 55.9676 31.3518 55.9676C30.6235 55.9676 30.0312 55.375 30.0312 54.647ZM31.0902 54.647C31.0902 54.7913 31.2076 54.9086 31.3522 54.9086C31.4965 54.9086 31.6138 54.7913 31.6138 54.647C31.6138 54.5028 31.4961 54.385 31.3518 54.385C31.2076 54.385 31.0902 54.5028 31.0902 54.647ZM32.6724 58.5292C32.6724 59.2575 32.0801 59.8498 31.3518 59.8498C30.6235 59.8498 30.0312 59.2575 30.0312 58.5292C30.0312 57.8009 30.6235 57.2086 31.3518 57.2086C32.0801 57.2086 32.6724 57.8009 32.6724 58.5292ZM31.6138 58.5292C31.6138 58.385 31.4965 58.2676 31.3522 58.2676C31.2079 58.2676 31.0902 58.385 31.0902 58.5292C31.0902 58.6735 31.2076 58.7908 31.3522 58.7908C31.4961 58.7908 31.6138 58.6735 31.6138 58.5292ZM29.4226 46.7079C29.2144 46.5024 29.2125 46.1675 29.4175 45.9593C29.623 45.7511 29.9579 45.7492 30.1661 45.9543L30.8329 46.612V44.3093C30.8329 44.0169 31.0699 43.7798 31.3623 43.7798H42.49V42.9041C39.7564 42.809 37.148 41.9629 37.148 40.4286C37.148 39.4395 38.3056 38.6261 40.229 38.2183C38.8944 36.6197 37.9208 35.0976 37.3223 33.6698C36.5 31.707 36.3893 29.9599 36.9936 28.4771C37.8545 26.365 40.2157 25 43.0094 25C45.803 25 48.1638 26.3646 49.0247 28.4771C49.629 29.9599 49.5187 31.707 48.696 33.6698C48.0979 35.0972 47.1243 36.6197 45.7893 38.2183C47.7123 38.6261 48.8703 39.4395 48.8703 40.4286C48.8703 41.959 46.2747 42.8047 43.5486 42.9033V43.7798H54.656C54.9484 43.7798 55.1855 44.0169 55.1855 44.3093V46.5882L55.8265 45.9387C56.0319 45.7304 56.3668 45.7281 56.5751 45.9336C56.7833 46.1391 56.7852 46.474 56.5801 46.6822L55.0326 48.25C54.934 48.3498 54.7999 48.4067 54.6591 48.4075C54.6579 48.4075 54.6568 48.4075 54.6556 48.4075C54.5164 48.4075 54.3827 48.3525 54.2836 48.255L52.7159 46.7075C52.5076 46.5021 52.5057 46.1671 52.7108 45.9589C52.9159 45.7507 53.2512 45.7488 53.4594 45.9539L54.1261 46.6116V44.8384H43.5486V46.5878L44.1896 45.9383C44.3951 45.7301 44.73 45.7277 44.9382 45.9332C45.1464 46.1387 45.1487 46.4736 44.9432 46.6818L43.3961 48.2496C43.2975 48.3494 43.1634 48.4063 43.023 48.4071C43.0218 48.4071 43.0207 48.4071 43.0195 48.4071C42.8803 48.4071 42.7466 48.3521 42.6475 48.2546L41.0798 46.7071C40.8715 46.5017 40.8696 46.1667 41.0747 45.9585C41.2798 45.7503 41.6151 45.7484 41.8233 45.9535L42.49 46.6112V44.838H31.8914V46.5874L32.5324 45.9379C32.7379 45.7297 33.0728 45.7273 33.281 45.9328C33.4892 46.1383 33.4912 46.4732 33.2861 46.6814L31.739 48.2492C31.6403 48.349 31.5062 48.4059 31.3659 48.4067C31.3647 48.4067 31.3635 48.4067 31.3623 48.4067C31.2232 48.4067 31.0894 48.3517 30.9904 48.2543L29.4226 46.7079ZM43.009 39.6839C48.8294 33.8495 48.6722 30.4176 48.0441 28.8767C47.3466 27.1651 45.3702 26.059 43.009 26.059C40.6477 26.059 38.6718 27.1651 37.9738 28.8767C37.3461 30.4176 37.189 33.8495 43.009 39.6839ZM43.009 41.8541C46.1164 41.8541 47.8113 40.9125 47.8113 40.4286C47.8113 40.0606 46.8292 39.4309 44.9807 39.1474C44.4871 39.6929 43.9529 40.2462 43.379 40.8072C43.276 40.9078 43.1423 40.9581 43.009 40.9581C42.8752 40.9581 42.7419 40.9078 42.639 40.8072C42.065 40.2462 41.5313 39.6929 41.0373 39.1474C39.1888 39.4309 38.2066 40.0606 38.2066 40.4286C38.2066 40.9125 39.9019 41.8541 43.009 41.8541ZM40.4555 57.8231C39.8578 57.7346 39.3268 57.6173 38.8772 57.4742C38.5984 57.3857 38.301 57.5397 38.2125 57.8184C38.1239 58.0972 38.278 58.3947 38.5563 58.4832C39.0601 58.6435 39.6465 58.7737 40.3003 58.8704C40.3265 58.8743 40.3526 58.8762 40.3783 58.8762C40.6364 58.8762 40.8626 58.6871 40.9012 58.4243C40.9448 58.135 40.7448 57.866 40.4555 57.8231ZM47.12 57.4745C46.6705 57.6176 46.1395 57.735 45.5417 57.8235C45.2524 57.8664 45.0528 58.1354 45.0957 58.4247C45.1347 58.6875 45.3604 58.8766 45.6186 58.8766C45.6443 58.8766 45.6704 58.8747 45.6965 58.8708C46.3504 58.7741 46.9372 58.6438 47.4405 58.4836C47.7193 58.3951 47.8733 58.0972 47.7844 57.8184C47.6963 57.5397 47.3988 57.3857 47.12 57.4745ZM38.5567 54.601C39.0605 54.7613 39.6469 54.8915 40.3007 54.9882C40.3269 54.9921 40.353 54.994 40.3787 54.994C40.6368 54.994 40.863 54.8049 40.9016 54.5421C40.9445 54.2528 40.7448 53.9838 40.4555 53.9409C39.8578 53.8524 39.3268 53.735 38.8772 53.5919C38.5984 53.5034 38.301 53.6575 38.2125 53.9362C38.1239 54.215 38.278 54.5125 38.5567 54.601ZM45.6189 54.994C45.6447 54.994 45.6708 54.9921 45.6969 54.9882C46.3508 54.8915 46.9376 54.7613 47.4409 54.601C47.7197 54.5125 47.8737 54.2146 47.7848 53.9358C47.6963 53.6571 47.3984 53.5031 47.12 53.5919C46.6705 53.735 46.1395 53.8524 45.5417 53.9409C45.2524 53.9838 45.0528 54.2528 45.0957 54.5421C45.1347 54.8049 45.3608 54.994 45.6189 54.994ZM41.6782 54.647C41.6782 53.9187 42.2705 53.3264 42.9988 53.3264C43.7272 53.3264 44.3194 53.9187 44.3194 54.647C44.3194 55.3753 43.7272 55.9676 42.9988 55.9676C42.2705 55.9676 41.6782 55.375 41.6782 54.647ZM42.7368 54.647C42.7368 54.7913 42.8542 54.9086 42.9988 54.9086C43.1435 54.9086 43.2608 54.7913 43.2608 54.647C43.2608 54.5028 43.1431 54.385 42.9988 54.385C42.8546 54.385 42.7368 54.5028 42.7368 54.647ZM44.3194 58.5292C44.3194 59.2575 43.7272 59.8498 42.9988 59.8498C42.2705 59.8498 41.6782 59.2575 41.6782 58.5292C41.6782 57.8009 42.2705 57.2086 42.9988 57.2086C43.7272 57.2086 44.3194 57.8009 44.3194 58.5292ZM43.2608 58.5292C43.2608 58.385 43.1435 58.2676 42.9988 58.2676C42.8542 58.2676 42.7368 58.385 42.7368 58.5292C42.7368 58.6735 42.8542 58.7908 42.9988 58.7908C43.1435 58.7908 43.2608 58.6735 43.2608 58.5292ZM60.9984 50.9991V58.7628C60.9984 59.4954 60.2966 60.0724 58.9125 60.4783C57.7654 60.8148 56.2503 61 54.6458 61C53.0414 61 51.5259 60.8148 50.3792 60.4783C49.6906 60.2764 49.1709 60.0319 48.8223 59.7473C48.4738 60.0319 47.9544 60.2764 47.2655 60.4783C46.1188 60.8144 44.6033 60.9996 42.9988 60.9996C41.3944 60.9996 39.8789 60.8144 38.7322 60.4779C38.0436 60.276 37.5239 60.0315 37.1757 59.7469C36.8271 60.0315 36.3078 60.276 35.6192 60.4779C34.4722 60.8144 32.957 60.9996 31.3526 60.9996C29.7482 60.9996 28.2326 60.8144 27.086 60.4779C25.7018 60.072 25 59.4946 25 58.7624V50.998C25 50.2669 25.703 49.6899 27.0895 49.2832C28.2385 48.9463 29.7528 48.7607 31.353 48.7607C32.9531 48.7607 34.4675 48.9463 35.6165 49.2832C36.3066 49.4855 36.8275 49.7304 37.1765 50.015C37.5255 49.73 38.0464 49.4855 38.7365 49.2832C39.8855 48.9463 41.3999 48.7607 43 48.7607C44.6001 48.7607 46.1145 48.9463 47.2635 49.2832C47.9536 49.4855 48.4745 49.7304 48.8235 50.015C49.1725 49.73 49.6934 49.4855 50.3835 49.2832C51.5325 48.9463 53.0469 48.7607 54.647 48.7607C56.2472 48.7607 57.7615 48.9463 58.9105 49.2832C60.297 49.6899 61 50.2669 61 50.998C60.9988 50.9984 60.9984 50.9987 60.9984 50.9991ZM37.7048 54.8802C37.7185 54.9523 37.9996 55.2931 39.1283 55.6077C40.1701 55.8982 41.5449 56.0584 42.9988 56.0584C44.4528 56.0584 45.8271 55.8982 46.8693 55.6077C47.9961 55.2935 48.2784 54.9531 48.2929 54.8782V52.317C48.0067 52.4628 47.6632 52.5946 47.2624 52.7123C46.1133 53.0492 44.599 53.2348 42.9988 53.2348C41.3987 53.2348 39.8843 53.0492 38.7353 52.7123C38.3345 52.5946 37.991 52.4628 37.7048 52.317V54.8802ZM49.3518 54.8802C49.3651 54.9519 49.6462 55.2931 50.7753 55.6081C51.8171 55.8986 53.1919 56.0588 54.6458 56.0588C56.0998 56.0588 57.4742 55.8986 58.5164 55.6081C59.6443 55.2935 59.9262 54.9527 59.9399 54.8782V52.3174C59.6537 52.4632 59.3102 52.595 58.9094 52.7127C57.7603 53.0496 56.246 53.2352 54.6458 53.2352C53.0457 53.2352 51.5313 53.0496 50.3823 52.7127C49.9815 52.595 49.638 52.4632 49.3518 52.3174V54.8802ZM49.3518 51.0003V51.0019C49.3686 51.072 49.6571 51.4132 50.7874 51.7271C51.8304 52.0168 53.2005 52.1762 54.6462 52.1762C56.092 52.1762 57.4621 52.0168 58.505 51.7271C59.6389 51.412 59.9258 51.0693 59.9407 50.9948C59.9258 50.9266 59.6389 50.5839 58.505 50.2689C57.4621 49.9792 56.092 49.8197 54.6462 49.8197C53.2005 49.8197 51.8304 49.9792 50.7874 50.2689C49.6571 50.5827 49.3682 50.9239 49.3518 51.0003ZM37.7048 51.0003V51.0019C37.7216 51.072 38.0101 51.4132 39.14 51.7271C40.183 52.0168 41.5531 52.1762 42.9988 52.1762C44.4446 52.1762 45.8147 52.0168 46.8576 51.7271C47.9891 51.4128 48.2773 51.0709 48.2932 50.9952C48.2932 50.9948 48.2932 50.9945 48.2932 50.9941C48.2776 50.9247 47.9895 50.5827 46.8576 50.2685C45.8147 49.9792 44.4442 49.8193 42.9988 49.8193C41.5535 49.8193 40.183 49.9788 39.14 50.2685C38.0101 50.5827 37.7212 50.9239 37.7048 51.0003ZM26.0578 51.0003V51.0019C26.0746 51.072 26.3631 51.4132 27.4934 51.7271C28.5364 52.0168 29.9065 52.1762 31.3522 52.1762C32.7979 52.1762 34.168 52.0168 35.211 51.7271C36.3425 51.4128 36.6306 51.0709 36.6466 50.9952C36.6466 50.9948 36.6466 50.9945 36.6466 50.9941C36.631 50.9247 36.3429 50.5827 35.211 50.2685C34.168 49.9788 32.7979 49.8193 31.3522 49.8193C29.9065 49.8193 28.5364 49.9788 27.4934 50.2685C26.3631 50.5827 26.0746 50.9239 26.0578 51.0003ZM26.0578 54.8802C26.071 54.9519 26.3522 55.2931 27.4813 55.6081C28.5231 55.8986 29.8979 56.0588 31.3518 56.0588C32.8057 56.0588 34.1801 55.8986 35.2223 55.6081C36.3503 55.2935 36.6322 54.9527 36.6458 54.8782V52.3174C36.3597 52.4632 36.0162 52.595 35.6153 52.7127C34.4663 53.0496 32.952 53.2352 31.3518 53.2352C29.7517 53.2352 28.2373 53.0496 27.0883 52.7127C26.6875 52.595 26.344 52.4632 26.0578 52.3174V54.8802ZM36.6462 58.76V56.2015C36.3608 56.347 36.0185 56.4784 35.6189 56.5957C34.4718 56.9322 32.9566 57.1174 31.3522 57.1174C29.7478 57.1174 28.2322 56.9322 27.0856 56.5957C26.6855 56.4788 26.3432 56.347 26.0578 56.2019V58.7628C26.071 58.8345 26.3522 59.1757 27.4813 59.4903C28.5231 59.7812 29.8979 59.941 31.3518 59.941C32.8057 59.941 34.1805 59.7808 35.2223 59.4903C36.3519 59.1753 36.6326 58.8341 36.6462 58.76ZM48.2929 58.7608V56.2019C48.0075 56.3474 47.6651 56.4788 47.2655 56.5961C46.1184 56.9326 44.6033 57.1178 42.9988 57.1178C41.3944 57.1178 39.8789 56.9326 38.7322 56.5961C38.3325 56.4788 37.9902 56.3474 37.7048 56.2019V58.7628C37.7185 58.8349 37.9996 59.1757 39.1283 59.4903C40.1701 59.7812 41.5449 59.941 42.9988 59.941C44.4528 59.941 45.8275 59.7808 46.8693 59.4903C47.9961 59.1761 48.2784 58.8357 48.2929 58.7608ZM59.9399 58.76V56.2015C59.6545 56.347 59.3121 56.4784 58.9125 56.5957C57.7654 56.9322 56.2503 57.1174 54.6458 57.1174C53.0414 57.1174 51.5259 56.9322 50.3792 56.5957C49.9796 56.4784 49.6372 56.347 49.3518 56.2015V58.7624C49.3651 58.8341 49.6462 59.1753 50.7753 59.4899C51.8171 59.7808 53.1919 59.9406 54.6458 59.9406C56.0998 59.9406 57.4745 59.7804 58.5164 59.4899C59.6455 59.1753 59.9266 58.8341 59.9399 58.76ZM58.7671 57.4745C58.3175 57.6176 57.7865 57.735 57.1888 57.8235C56.8994 57.8664 56.6998 58.1354 56.7427 58.4247C56.7817 58.6875 57.0075 58.8766 57.2656 58.8766C57.2913 58.8766 57.3174 58.8747 57.3435 58.8708C57.9974 58.7741 58.5842 58.6438 59.0876 58.4836C59.3663 58.3951 59.5203 58.0972 59.4314 57.8184C59.3433 57.5397 59.0454 57.3857 58.7671 57.4745ZM52.1025 57.8231C51.5048 57.7346 50.9738 57.6173 50.5242 57.4742C50.2455 57.3857 49.948 57.5397 49.8595 57.8184C49.771 58.0972 49.925 58.3947 50.2034 58.4832C50.7071 58.6435 51.2935 58.7737 51.9474 58.8704C51.9735 58.8743 51.9996 58.8762 52.0253 58.8762C52.2835 58.8762 52.5096 58.6871 52.5482 58.4243C52.5915 58.135 52.3918 57.866 52.1025 57.8231ZM57.2656 54.994C57.2913 54.994 57.3174 54.9921 57.3435 54.9882C57.9974 54.8915 58.5842 54.7613 59.0876 54.601C59.3663 54.5125 59.5203 54.2146 59.4314 53.9358C59.3429 53.6571 59.0451 53.5031 58.7667 53.5919C58.3171 53.735 57.7861 53.8524 57.1884 53.9409C56.8991 53.9838 56.6994 54.2528 56.7423 54.5421C56.7817 54.8049 57.0075 54.994 57.2656 54.994ZM50.2034 54.601C50.7071 54.7613 51.2935 54.8915 51.9474 54.9882C51.9735 54.9921 51.9996 54.994 52.0253 54.994C52.2835 54.994 52.5096 54.8049 52.5482 54.5421C52.5911 54.2528 52.3915 53.9838 52.1022 53.9409C51.5044 53.8524 50.9734 53.735 50.5238 53.5919C50.2451 53.5034 49.9476 53.6575 49.8591 53.9362C49.771 54.215 49.925 54.5125 50.2034 54.601ZM53.3253 54.647C53.3253 53.9187 53.9175 53.3264 54.6458 53.3264C55.3742 53.3264 55.9664 53.9187 55.9664 54.647C55.9664 55.3753 55.3742 55.9676 54.6458 55.9676C53.9175 55.9676 53.3253 55.375 53.3253 54.647ZM54.3838 54.647C54.3838 54.7913 54.5012 54.9086 54.6458 54.9086C54.7901 54.9086 54.9079 54.7913 54.9079 54.647C54.9079 54.5028 54.7901 54.385 54.6458 54.385C54.5012 54.385 54.3838 54.5028 54.3838 54.647ZM55.9664 58.5292C55.9664 59.2575 55.3742 59.8498 54.6458 59.8498C53.9175 59.8498 53.3253 59.2575 53.3253 58.5292C53.3253 57.8009 53.9175 57.2086 54.6458 57.2086C55.3742 57.2086 55.9664 57.8009 55.9664 58.5292ZM54.9075 58.5292C54.9075 58.385 54.7901 58.2676 54.6455 58.2676C54.5012 58.2676 54.3834 58.385 54.3834 58.5292C54.3834 58.6735 54.5008 58.7908 54.6455 58.7908C54.7901 58.7908 54.9075 58.6735 54.9075 58.5292ZM43.009 35.2586C40.7277 35.2586 38.8718 33.4027 38.8718 31.1214C38.8718 28.8401 40.7277 26.9842 43.009 26.9842C45.2903 26.9842 47.1462 28.8401 47.1462 31.1214C47.1462 33.4027 45.2903 35.2586 43.009 35.2586ZM43.009 34.2C44.7066 34.2 46.0876 32.819 46.0876 31.1214C46.0876 29.4238 44.7066 28.0428 43.009 28.0428C41.3114 28.0428 39.9303 29.4238 39.9303 31.1214C39.9307 32.819 41.3117 34.2 43.009 34.2Z" fill="black"/>
</svg>
