<svg width="40" height="2355" viewBox="0 0 40 2355" fill="none" xmlns="http://www.w3.org/2000/svg">
<line x1="19.5" y1="41.5" x2="19.5" y2="199.5" stroke="#38A484" stroke-width="3" stroke-linecap="round" stroke-dasharray="10 10"/>
<line x1="19.5" y1="243.5" x2="19.5" y2="636.5" stroke="#FF8B5C" stroke-width="3" stroke-linecap="round" stroke-dasharray="10 10"/>
<line x1="19.5" y1="679.5" x2="19.5" y2="950.5" stroke="#5F95FF" stroke-width="3" stroke-linecap="round" stroke-dasharray="10 10"/>
<line x1="19.5" y1="993.5" x2="19.5" y2="1288.5" stroke="#99D14C" stroke-width="3" stroke-linecap="round" stroke-dasharray="10 10"/>
<line x1="19.5" y1="1331.5" x2="19.5" y2="1624.5" stroke="#F9B821" stroke-width="3" stroke-linecap="round" stroke-dasharray="10 10"/>
<line x1="19.5" y1="1955.5" x2="19.5" y2="2313.5" stroke="#0E5D76" stroke-width="3" stroke-linecap="round" stroke-dasharray="10 10"/>
<line x1="19.5" y1="1669.5" x2="19.5" y2="1910.5" stroke="#FB665D" stroke-width="3" stroke-linecap="round" stroke-dasharray="10 10"/>
<circle cx="20" cy="20" r="20" fill="#38A484" fill-opacity="0.5"/>
<path d="M16.097 16V13.42H20.917V28H18.037V16H16.097Z" fill="black"/>
<path d="M16.097 16V13.42H20.917V28H18.037V16H16.097Z" fill="black"/>
<path d="M16.097 16V13.42H20.917V28H18.037V16H16.097Z" fill="black"/>
<path d="M16.097 16V13.42H20.917V28H18.037V16H16.097Z" fill="black"/>
<circle cx="20" cy="221" r="20" fill="#FF8B5C" fill-opacity="0.5"/>
<path d="M15.1978 224.84C16.4778 223.773 17.4978 222.887 18.2578 222.18C19.0178 221.46 19.6511 220.713 20.1578 219.94C20.6645 219.167 20.9178 218.407 20.9178 217.66C20.9178 216.98 20.7578 216.447 20.4378 216.06C20.1178 215.673 19.6245 215.48 18.9578 215.48C18.2911 215.48 17.7778 215.707 17.4178 216.16C17.0578 216.6 16.8711 217.207 16.8578 217.98H14.1378C14.1911 216.38 14.6645 215.167 15.5578 214.34C16.4645 213.513 17.6111 213.1 18.9978 213.1C20.5178 213.1 21.6845 213.507 22.4978 214.32C23.3111 215.12 23.7178 216.18 23.7178 217.5C23.7178 218.54 23.4378 219.533 22.8778 220.48C22.3178 221.427 21.6778 222.253 20.9578 222.96C20.2378 223.653 19.2978 224.493 18.1378 225.48H24.0378V227.8H14.1578V225.72L15.1978 224.84Z" fill="black"/>
<path d="M15.1978 224.84C16.4778 223.773 17.4978 222.887 18.2578 222.18C19.0178 221.46 19.6511 220.713 20.1578 219.94C20.6645 219.167 20.9178 218.407 20.9178 217.66C20.9178 216.98 20.7578 216.447 20.4378 216.06C20.1178 215.673 19.6245 215.48 18.9578 215.48C18.2911 215.48 17.7778 215.707 17.4178 216.16C17.0578 216.6 16.8711 217.207 16.8578 217.98H14.1378C14.1911 216.38 14.6645 215.167 15.5578 214.34C16.4645 213.513 17.6111 213.1 18.9978 213.1C20.5178 213.1 21.6845 213.507 22.4978 214.32C23.3111 215.12 23.7178 216.18 23.7178 217.5C23.7178 218.54 23.4378 219.533 22.8778 220.48C22.3178 221.427 21.6778 222.253 20.9578 222.96C20.2378 223.653 19.2978 224.493 18.1378 225.48H24.0378V227.8H14.1578V225.72L15.1978 224.84Z" fill="black"/>
<path d="M15.1978 224.84C16.4778 223.773 17.4978 222.887 18.2578 222.18C19.0178 221.46 19.6511 220.713 20.1578 219.94C20.6645 219.167 20.9178 218.407 20.9178 217.66C20.9178 216.98 20.7578 216.447 20.4378 216.06C20.1178 215.673 19.6245 215.48 18.9578 215.48C18.2911 215.48 17.7778 215.707 17.4178 216.16C17.0578 216.6 16.8711 217.207 16.8578 217.98H14.1378C14.1911 216.38 14.6645 215.167 15.5578 214.34C16.4645 213.513 17.6111 213.1 18.9978 213.1C20.5178 213.1 21.6845 213.507 22.4978 214.32C23.3111 215.12 23.7178 216.18 23.7178 217.5C23.7178 218.54 23.4378 219.533 22.8778 220.48C22.3178 221.427 21.6778 222.253 20.9578 222.96C20.2378 223.653 19.2978 224.493 18.1378 225.48H24.0378V227.8H14.1578V225.72L15.1978 224.84Z" fill="black"/>
<path d="M15.1978 224.84C16.4778 223.773 17.4978 222.887 18.2578 222.18C19.0178 221.46 19.6511 220.713 20.1578 219.94C20.6645 219.167 20.9178 218.407 20.9178 217.66C20.9178 216.98 20.7578 216.447 20.4378 216.06C20.1178 215.673 19.6245 215.48 18.9578 215.48C18.2911 215.48 17.7778 215.707 17.4178 216.16C17.0578 216.6 16.8711 217.207 16.8578 217.98H14.1378C14.1911 216.38 14.6645 215.167 15.5578 214.34C16.4645 213.513 17.6111 213.1 18.9978 213.1C20.5178 213.1 21.6845 213.507 22.4978 214.32C23.3111 215.12 23.7178 216.18 23.7178 217.5C23.7178 218.54 23.4378 219.533 22.8778 220.48C22.3178 221.427 21.6778 222.253 20.9578 222.96C20.2378 223.653 19.2978 224.493 18.1378 225.48H24.0378V227.8H14.1578V225.72L15.1978 224.84Z" fill="black"/>
<circle cx="20" cy="658" r="20" fill="#5F95FF" fill-opacity="0.5"/>
<path d="M14.1137 654.26C14.1803 652.927 14.647 651.9 15.5137 651.18C16.3937 650.447 17.547 650.08 18.9737 650.08C19.947 650.08 20.7803 650.253 21.4737 650.6C22.167 650.933 22.687 651.393 23.0337 651.98C23.3937 652.553 23.5737 653.207 23.5737 653.94C23.5737 654.78 23.3537 655.493 22.9137 656.08C22.487 656.653 21.9737 657.04 21.3737 657.24V657.32C22.147 657.56 22.747 657.987 23.1737 658.6C23.6137 659.213 23.8337 660 23.8337 660.96C23.8337 661.76 23.647 662.473 23.2737 663.1C22.9137 663.727 22.3737 664.22 21.6537 664.58C20.947 664.927 20.0937 665.1 19.0937 665.1C17.587 665.1 16.3603 664.72 15.4137 663.96C14.467 663.2 13.967 662.08 13.9137 660.6H16.6337C16.6603 661.253 16.8803 661.78 17.2937 662.18C17.7203 662.567 18.3003 662.76 19.0337 662.76C19.7137 662.76 20.2337 662.573 20.5937 662.2C20.967 661.813 21.1537 661.32 21.1537 660.72C21.1537 659.92 20.9003 659.347 20.3937 659C19.887 658.653 19.1003 658.48 18.0337 658.48H17.4537V656.18H18.0337C19.927 656.18 20.8737 655.547 20.8737 654.28C20.8737 653.707 20.7003 653.26 20.3537 652.94C20.0203 652.62 19.5337 652.46 18.8937 652.46C18.267 652.46 17.7803 652.633 17.4337 652.98C17.1003 653.313 16.907 653.74 16.8537 654.26H14.1137Z" fill="black"/>
<path d="M14.1137 654.26C14.1803 652.927 14.647 651.9 15.5137 651.18C16.3937 650.447 17.547 650.08 18.9737 650.08C19.947 650.08 20.7803 650.253 21.4737 650.6C22.167 650.933 22.687 651.393 23.0337 651.98C23.3937 652.553 23.5737 653.207 23.5737 653.94C23.5737 654.78 23.3537 655.493 22.9137 656.08C22.487 656.653 21.9737 657.04 21.3737 657.24V657.32C22.147 657.56 22.747 657.987 23.1737 658.6C23.6137 659.213 23.8337 660 23.8337 660.96C23.8337 661.76 23.647 662.473 23.2737 663.1C22.9137 663.727 22.3737 664.22 21.6537 664.58C20.947 664.927 20.0937 665.1 19.0937 665.1C17.587 665.1 16.3603 664.72 15.4137 663.96C14.467 663.2 13.967 662.08 13.9137 660.6H16.6337C16.6603 661.253 16.8803 661.78 17.2937 662.18C17.7203 662.567 18.3003 662.76 19.0337 662.76C19.7137 662.76 20.2337 662.573 20.5937 662.2C20.967 661.813 21.1537 661.32 21.1537 660.72C21.1537 659.92 20.9003 659.347 20.3937 659C19.887 658.653 19.1003 658.48 18.0337 658.48H17.4537V656.18H18.0337C19.927 656.18 20.8737 655.547 20.8737 654.28C20.8737 653.707 20.7003 653.26 20.3537 652.94C20.0203 652.62 19.5337 652.46 18.8937 652.46C18.267 652.46 17.7803 652.633 17.4337 652.98C17.1003 653.313 16.907 653.74 16.8537 654.26H14.1137Z" fill="black"/>
<path d="M14.1137 654.26C14.1803 652.927 14.647 651.9 15.5137 651.18C16.3937 650.447 17.547 650.08 18.9737 650.08C19.947 650.08 20.7803 650.253 21.4737 650.6C22.167 650.933 22.687 651.393 23.0337 651.98C23.3937 652.553 23.5737 653.207 23.5737 653.94C23.5737 654.78 23.3537 655.493 22.9137 656.08C22.487 656.653 21.9737 657.04 21.3737 657.24V657.32C22.147 657.56 22.747 657.987 23.1737 658.6C23.6137 659.213 23.8337 660 23.8337 660.96C23.8337 661.76 23.647 662.473 23.2737 663.1C22.9137 663.727 22.3737 664.22 21.6537 664.58C20.947 664.927 20.0937 665.1 19.0937 665.1C17.587 665.1 16.3603 664.72 15.4137 663.96C14.467 663.2 13.967 662.08 13.9137 660.6H16.6337C16.6603 661.253 16.8803 661.78 17.2937 662.18C17.7203 662.567 18.3003 662.76 19.0337 662.76C19.7137 662.76 20.2337 662.573 20.5937 662.2C20.967 661.813 21.1537 661.32 21.1537 660.72C21.1537 659.92 20.9003 659.347 20.3937 659C19.887 658.653 19.1003 658.48 18.0337 658.48H17.4537V656.18H18.0337C19.927 656.18 20.8737 655.547 20.8737 654.28C20.8737 653.707 20.7003 653.26 20.3537 652.94C20.0203 652.62 19.5337 652.46 18.8937 652.46C18.267 652.46 17.7803 652.633 17.4337 652.98C17.1003 653.313 16.907 653.74 16.8537 654.26H14.1137Z" fill="black"/>
<path d="M14.1137 654.26C14.1803 652.927 14.647 651.9 15.5137 651.18C16.3937 650.447 17.547 650.08 18.9737 650.08C19.947 650.08 20.7803 650.253 21.4737 650.6C22.167 650.933 22.687 651.393 23.0337 651.98C23.3937 652.553 23.5737 653.207 23.5737 653.94C23.5737 654.78 23.3537 655.493 22.9137 656.08C22.487 656.653 21.9737 657.04 21.3737 657.24V657.32C22.147 657.56 22.747 657.987 23.1737 658.6C23.6137 659.213 23.8337 660 23.8337 660.96C23.8337 661.76 23.647 662.473 23.2737 663.1C22.9137 663.727 22.3737 664.22 21.6537 664.58C20.947 664.927 20.0937 665.1 19.0937 665.1C17.587 665.1 16.3603 664.72 15.4137 663.96C14.467 663.2 13.967 662.08 13.9137 660.6H16.6337C16.6603 661.253 16.8803 661.78 17.2937 662.18C17.7203 662.567 18.3003 662.76 19.0337 662.76C19.7137 662.76 20.2337 662.573 20.5937 662.2C20.967 661.813 21.1537 661.32 21.1537 660.72C21.1537 659.92 20.9003 659.347 20.3937 659C19.887 658.653 19.1003 658.48 18.0337 658.48H17.4537V656.18H18.0337C19.927 656.18 20.8737 655.547 20.8737 654.28C20.8737 653.707 20.7003 653.26 20.3537 652.94C20.0203 652.62 19.5337 652.46 18.8937 652.46C18.267 652.46 17.7803 652.633 17.4337 652.98C17.1003 653.313 16.907 653.74 16.8537 654.26H14.1137Z" fill="black"/>
<circle cx="20" cy="972" r="20" fill="#99D14C" fill-opacity="0.5"/>
<path d="M14.3287 976.16V973.96L20.8687 964.6H24.1287V973.72H25.8887V976.16H24.1287V979H21.3287V976.16H14.3287ZM21.5087 967.6L17.4087 973.72H21.5087V967.6Z" fill="black"/>
<path d="M14.3287 976.16V973.96L20.8687 964.6H24.1287V973.72H25.8887V976.16H24.1287V979H21.3287V976.16H14.3287ZM21.5087 967.6L17.4087 973.72H21.5087V967.6Z" fill="black"/>
<path d="M14.3287 976.16V973.96L20.8687 964.6H24.1287V973.72H25.8887V976.16H24.1287V979H21.3287V976.16H14.3287ZM21.5087 967.6L17.4087 973.72H21.5087V967.6Z" fill="black"/>
<path d="M14.3287 976.16V973.96L20.8687 964.6H24.1287V973.72H25.8887V976.16H24.1287V979H21.3287V976.16H14.3287ZM21.5087 967.6L17.4087 973.72H21.5087V967.6Z" fill="black"/>
<circle cx="20" cy="1310" r="20" fill="#F9B821" fill-opacity="0.5"/>
<path d="M24.9245 1304.84H18.4445V1308.26C18.7245 1307.91 19.1245 1307.63 19.6445 1307.42C20.1645 1307.19 20.7178 1307.08 21.3045 1307.08C22.3711 1307.08 23.2445 1307.31 23.9245 1307.78C24.6045 1308.25 25.0978 1308.85 25.4045 1309.58C25.7111 1310.3 25.8645 1311.07 25.8645 1311.9C25.8645 1313.43 25.4245 1314.67 24.5445 1315.6C23.6778 1316.53 22.4378 1317 20.8245 1317C19.3045 1317 18.0911 1316.62 17.1845 1315.86C16.2778 1315.1 15.7645 1314.11 15.6445 1312.88H18.3645C18.4845 1313.41 18.7511 1313.84 19.1645 1314.16C19.5911 1314.48 20.1311 1314.64 20.7845 1314.64C21.5711 1314.64 22.1645 1314.39 22.5645 1313.9C22.9645 1313.41 23.1645 1312.75 23.1645 1311.94C23.1645 1311.11 22.9578 1310.49 22.5445 1310.06C22.1445 1309.62 21.5511 1309.4 20.7645 1309.4C20.2045 1309.4 19.7378 1309.54 19.3645 1309.82C18.9911 1310.1 18.7245 1310.47 18.5645 1310.94H15.8845V1302.38H24.9245V1304.84Z" fill="black"/>
<path d="M24.9245 1304.84H18.4445V1308.26C18.7245 1307.91 19.1245 1307.63 19.6445 1307.42C20.1645 1307.19 20.7178 1307.08 21.3045 1307.08C22.3711 1307.08 23.2445 1307.31 23.9245 1307.78C24.6045 1308.25 25.0978 1308.85 25.4045 1309.58C25.7111 1310.3 25.8645 1311.07 25.8645 1311.9C25.8645 1313.43 25.4245 1314.67 24.5445 1315.6C23.6778 1316.53 22.4378 1317 20.8245 1317C19.3045 1317 18.0911 1316.62 17.1845 1315.86C16.2778 1315.1 15.7645 1314.11 15.6445 1312.88H18.3645C18.4845 1313.41 18.7511 1313.84 19.1645 1314.16C19.5911 1314.48 20.1311 1314.64 20.7845 1314.64C21.5711 1314.64 22.1645 1314.39 22.5645 1313.9C22.9645 1313.41 23.1645 1312.75 23.1645 1311.94C23.1645 1311.11 22.9578 1310.49 22.5445 1310.06C22.1445 1309.62 21.5511 1309.4 20.7645 1309.4C20.2045 1309.4 19.7378 1309.54 19.3645 1309.82C18.9911 1310.1 18.7245 1310.47 18.5645 1310.94H15.8845V1302.38H24.9245V1304.84Z" fill="black"/>
<path d="M24.9245 1304.84H18.4445V1308.26C18.7245 1307.91 19.1245 1307.63 19.6445 1307.42C20.1645 1307.19 20.7178 1307.08 21.3045 1307.08C22.3711 1307.08 23.2445 1307.31 23.9245 1307.78C24.6045 1308.25 25.0978 1308.85 25.4045 1309.58C25.7111 1310.3 25.8645 1311.07 25.8645 1311.9C25.8645 1313.43 25.4245 1314.67 24.5445 1315.6C23.6778 1316.53 22.4378 1317 20.8245 1317C19.3045 1317 18.0911 1316.62 17.1845 1315.86C16.2778 1315.1 15.7645 1314.11 15.6445 1312.88H18.3645C18.4845 1313.41 18.7511 1313.84 19.1645 1314.16C19.5911 1314.48 20.1311 1314.64 20.7845 1314.64C21.5711 1314.64 22.1645 1314.39 22.5645 1313.9C22.9645 1313.41 23.1645 1312.75 23.1645 1311.94C23.1645 1311.11 22.9578 1310.49 22.5445 1310.06C22.1445 1309.62 21.5511 1309.4 20.7645 1309.4C20.2045 1309.4 19.7378 1309.54 19.3645 1309.82C18.9911 1310.1 18.7245 1310.47 18.5645 1310.94H15.8845V1302.38H24.9245V1304.84Z" fill="black"/>
<path d="M24.9245 1304.84H18.4445V1308.26C18.7245 1307.91 19.1245 1307.63 19.6445 1307.42C20.1645 1307.19 20.7178 1307.08 21.3045 1307.08C22.3711 1307.08 23.2445 1307.31 23.9245 1307.78C24.6045 1308.25 25.0978 1308.85 25.4045 1309.58C25.7111 1310.3 25.8645 1311.07 25.8645 1311.9C25.8645 1313.43 25.4245 1314.67 24.5445 1315.6C23.6778 1316.53 22.4378 1317 20.8245 1317C19.3045 1317 18.0911 1316.62 17.1845 1315.86C16.2778 1315.1 15.7645 1314.11 15.6445 1312.88H18.3645C18.4845 1313.41 18.7511 1313.84 19.1645 1314.16C19.5911 1314.48 20.1311 1314.64 20.7845 1314.64C21.5711 1314.64 22.1645 1314.39 22.5645 1313.9C22.9645 1313.41 23.1645 1312.75 23.1645 1311.94C23.1645 1311.11 22.9578 1310.49 22.5445 1310.06C22.1445 1309.62 21.5511 1309.4 20.7645 1309.4C20.2045 1309.4 19.7378 1309.54 19.3645 1309.82C18.9911 1310.1 18.7245 1310.47 18.5645 1310.94H15.8845V1302.38H24.9245V1304.84Z" fill="black"/>
<circle cx="20" cy="1648" r="20" fill="#FB665D" fill-opacity="0.5"/>
<path d="M22.7235 1644.06C22.5902 1643.5 22.3568 1643.08 22.0235 1642.8C21.7035 1642.52 21.2368 1642.38 20.6235 1642.38C19.7035 1642.38 19.0235 1642.75 18.5835 1643.5C18.1568 1644.23 17.9368 1645.43 17.9235 1647.1C18.2435 1646.57 18.7102 1646.15 19.3235 1645.86C19.9368 1645.55 20.6035 1645.4 21.3235 1645.4C22.1902 1645.4 22.9568 1645.59 23.6235 1645.96C24.2902 1646.33 24.8102 1646.88 25.1835 1647.6C25.5568 1648.31 25.7435 1649.16 25.7435 1650.16C25.7435 1651.11 25.5502 1651.95 25.1635 1652.7C24.7902 1653.43 24.2368 1654.01 23.5035 1654.42C22.7702 1654.83 21.8968 1655.04 20.8835 1655.04C19.4968 1655.04 18.4035 1654.73 17.6035 1654.12C16.8168 1653.51 16.2635 1652.65 15.9435 1651.56C15.6368 1650.45 15.4835 1649.09 15.4835 1647.48C15.4835 1645.04 15.9035 1643.2 16.7435 1641.96C17.5835 1640.71 18.9102 1640.08 20.7235 1640.08C22.1235 1640.08 23.2102 1640.46 23.9835 1641.22C24.7568 1641.98 25.2035 1642.93 25.3235 1644.06H22.7235ZM20.6835 1647.7C19.9768 1647.7 19.3835 1647.91 18.9035 1648.32C18.4235 1648.73 18.1835 1649.33 18.1835 1650.12C18.1835 1650.91 18.4035 1651.53 18.8435 1651.98C19.2968 1652.43 19.9302 1652.66 20.7435 1652.66C21.4635 1652.66 22.0302 1652.44 22.4435 1652C22.8702 1651.56 23.0835 1650.97 23.0835 1650.22C23.0835 1649.45 22.8768 1648.83 22.4635 1648.38C22.0635 1647.93 21.4702 1647.7 20.6835 1647.7Z" fill="black"/>
<path d="M22.7235 1644.06C22.5902 1643.5 22.3568 1643.08 22.0235 1642.8C21.7035 1642.52 21.2368 1642.38 20.6235 1642.38C19.7035 1642.38 19.0235 1642.75 18.5835 1643.5C18.1568 1644.23 17.9368 1645.43 17.9235 1647.1C18.2435 1646.57 18.7102 1646.15 19.3235 1645.86C19.9368 1645.55 20.6035 1645.4 21.3235 1645.4C22.1902 1645.4 22.9568 1645.59 23.6235 1645.96C24.2902 1646.33 24.8102 1646.88 25.1835 1647.6C25.5568 1648.31 25.7435 1649.16 25.7435 1650.16C25.7435 1651.11 25.5502 1651.95 25.1635 1652.7C24.7902 1653.43 24.2368 1654.01 23.5035 1654.42C22.7702 1654.83 21.8968 1655.04 20.8835 1655.04C19.4968 1655.04 18.4035 1654.73 17.6035 1654.12C16.8168 1653.51 16.2635 1652.65 15.9435 1651.56C15.6368 1650.45 15.4835 1649.09 15.4835 1647.48C15.4835 1645.04 15.9035 1643.2 16.7435 1641.96C17.5835 1640.71 18.9102 1640.08 20.7235 1640.08C22.1235 1640.08 23.2102 1640.46 23.9835 1641.22C24.7568 1641.98 25.2035 1642.93 25.3235 1644.06H22.7235ZM20.6835 1647.7C19.9768 1647.7 19.3835 1647.91 18.9035 1648.32C18.4235 1648.73 18.1835 1649.33 18.1835 1650.12C18.1835 1650.91 18.4035 1651.53 18.8435 1651.98C19.2968 1652.43 19.9302 1652.66 20.7435 1652.66C21.4635 1652.66 22.0302 1652.44 22.4435 1652C22.8702 1651.56 23.0835 1650.97 23.0835 1650.22C23.0835 1649.45 22.8768 1648.83 22.4635 1648.38C22.0635 1647.93 21.4702 1647.7 20.6835 1647.7Z" fill="black"/>
<path d="M22.7235 1644.06C22.5902 1643.5 22.3568 1643.08 22.0235 1642.8C21.7035 1642.52 21.2368 1642.38 20.6235 1642.38C19.7035 1642.38 19.0235 1642.75 18.5835 1643.5C18.1568 1644.23 17.9368 1645.43 17.9235 1647.1C18.2435 1646.57 18.7102 1646.15 19.3235 1645.86C19.9368 1645.55 20.6035 1645.4 21.3235 1645.4C22.1902 1645.4 22.9568 1645.59 23.6235 1645.96C24.2902 1646.33 24.8102 1646.88 25.1835 1647.6C25.5568 1648.31 25.7435 1649.16 25.7435 1650.16C25.7435 1651.11 25.5502 1651.95 25.1635 1652.7C24.7902 1653.43 24.2368 1654.01 23.5035 1654.42C22.7702 1654.83 21.8968 1655.04 20.8835 1655.04C19.4968 1655.04 18.4035 1654.73 17.6035 1654.12C16.8168 1653.51 16.2635 1652.65 15.9435 1651.56C15.6368 1650.45 15.4835 1649.09 15.4835 1647.48C15.4835 1645.04 15.9035 1643.2 16.7435 1641.96C17.5835 1640.71 18.9102 1640.08 20.7235 1640.08C22.1235 1640.08 23.2102 1640.46 23.9835 1641.22C24.7568 1641.98 25.2035 1642.93 25.3235 1644.06H22.7235ZM20.6835 1647.7C19.9768 1647.7 19.3835 1647.91 18.9035 1648.32C18.4235 1648.73 18.1835 1649.33 18.1835 1650.12C18.1835 1650.91 18.4035 1651.53 18.8435 1651.98C19.2968 1652.43 19.9302 1652.66 20.7435 1652.66C21.4635 1652.66 22.0302 1652.44 22.4435 1652C22.8702 1651.56 23.0835 1650.97 23.0835 1650.22C23.0835 1649.45 22.8768 1648.83 22.4635 1648.38C22.0635 1647.93 21.4702 1647.7 20.6835 1647.7Z" fill="black"/>
<path d="M22.7235 1644.06C22.5902 1643.5 22.3568 1643.08 22.0235 1642.8C21.7035 1642.52 21.2368 1642.38 20.6235 1642.38C19.7035 1642.38 19.0235 1642.75 18.5835 1643.5C18.1568 1644.23 17.9368 1645.43 17.9235 1647.1C18.2435 1646.57 18.7102 1646.15 19.3235 1645.86C19.9368 1645.55 20.6035 1645.4 21.3235 1645.4C22.1902 1645.4 22.9568 1645.59 23.6235 1645.96C24.2902 1646.33 24.8102 1646.88 25.1835 1647.6C25.5568 1648.31 25.7435 1649.16 25.7435 1650.16C25.7435 1651.11 25.5502 1651.95 25.1635 1652.7C24.7902 1653.43 24.2368 1654.01 23.5035 1654.42C22.7702 1654.83 21.8968 1655.04 20.8835 1655.04C19.4968 1655.04 18.4035 1654.73 17.6035 1654.12C16.8168 1653.51 16.2635 1652.65 15.9435 1651.56C15.6368 1650.45 15.4835 1649.09 15.4835 1647.48C15.4835 1645.04 15.9035 1643.2 16.7435 1641.96C17.5835 1640.71 18.9102 1640.08 20.7235 1640.08C22.1235 1640.08 23.2102 1640.46 23.9835 1641.22C24.7568 1641.98 25.2035 1642.93 25.3235 1644.06H22.7235ZM20.6835 1647.7C19.9768 1647.7 19.3835 1647.91 18.9035 1648.32C18.4235 1648.73 18.1835 1649.33 18.1835 1650.12C18.1835 1650.91 18.4035 1651.53 18.8435 1651.98C19.2968 1652.43 19.9302 1652.66 20.7435 1652.66C21.4635 1652.66 22.0302 1652.44 22.4435 1652C22.8702 1651.56 23.0835 1650.97 23.0835 1650.22C23.0835 1649.45 22.8768 1648.83 22.4635 1648.38C22.0635 1647.93 21.4702 1647.7 20.6835 1647.7Z" fill="black"/>
<circle cx="20" cy="1932" r="20" fill="#0E5D76" fill-opacity="0.5"/>
<path d="M25.3615 1926.54L20.0415 1939H17.2015L22.5615 1926.86H15.7215V1924.46H25.3615V1926.54Z" fill="black"/>
<path d="M25.3615 1926.54L20.0415 1939H17.2015L22.5615 1926.86H15.7215V1924.46H25.3615V1926.54Z" fill="black"/>
<path d="M25.3615 1926.54L20.0415 1939H17.2015L22.5615 1926.86H15.7215V1924.46H25.3615V1926.54Z" fill="black"/>
<path d="M25.3615 1926.54L20.0415 1939H17.2015L22.5615 1926.86H15.7215V1924.46H25.3615V1926.54Z" fill="black"/>
<circle cx="20" cy="2335" r="20" fill="#5F95FF" fill-opacity="0.5"/>
<path d="M17.5742 2334.28C16.2409 2333.59 15.5742 2332.51 15.5742 2331.06C15.5742 2330.34 15.7542 2329.69 16.1142 2329.1C16.4876 2328.5 17.0409 2328.03 17.7742 2327.68C18.5209 2327.32 19.4276 2327.14 20.4942 2327.14C21.5609 2327.14 22.4609 2327.32 23.1942 2327.68C23.9409 2328.03 24.4942 2328.5 24.8542 2329.1C25.2276 2329.69 25.4142 2330.34 25.4142 2331.06C25.4142 2331.79 25.2342 2332.44 24.8742 2333C24.5142 2333.55 24.0342 2333.97 23.4342 2334.28C24.1676 2334.6 24.7409 2335.07 25.1542 2335.68C25.5676 2336.29 25.7742 2337.02 25.7742 2337.86C25.7742 2338.77 25.5409 2339.56 25.0742 2340.24C24.6209 2340.91 23.9942 2341.42 23.1942 2341.78C22.3942 2342.14 21.4942 2342.32 20.4942 2342.32C19.4942 2342.32 18.5942 2342.14 17.7942 2341.78C17.0076 2341.42 16.3809 2340.91 15.9142 2340.24C15.4609 2339.56 15.2342 2338.77 15.2342 2337.86C15.2342 2337.02 15.4409 2336.29 15.8542 2335.68C16.2676 2335.05 16.8409 2334.59 17.5742 2334.28ZM22.6942 2331.46C22.6942 2330.81 22.4942 2330.3 22.0942 2329.94C21.7076 2329.58 21.1742 2329.4 20.4942 2329.4C19.8276 2329.4 19.2942 2329.58 18.8942 2329.94C18.5076 2330.3 18.3142 2330.81 18.3142 2331.48C18.3142 2332.08 18.5142 2332.56 18.9142 2332.92C19.3276 2333.28 19.8542 2333.46 20.4942 2333.46C21.1342 2333.46 21.6609 2333.28 22.0742 2332.92C22.4876 2332.55 22.6942 2332.06 22.6942 2331.46ZM20.4942 2335.5C19.7342 2335.5 19.1142 2335.69 18.6342 2336.08C18.1676 2336.47 17.9342 2337.02 17.9342 2337.74C17.9342 2338.41 18.1609 2338.95 18.6142 2339.38C19.0809 2339.79 19.7076 2340 20.4942 2340C21.2809 2340 21.9009 2339.79 22.3542 2339.36C22.8076 2338.93 23.0342 2338.39 23.0342 2337.74C23.0342 2337.03 22.8009 2336.49 22.3342 2336.1C21.8676 2335.7 21.2542 2335.5 20.4942 2335.5Z" fill="black"/>
<path d="M17.5742 2334.28C16.2409 2333.59 15.5742 2332.51 15.5742 2331.06C15.5742 2330.34 15.7542 2329.69 16.1142 2329.1C16.4876 2328.5 17.0409 2328.03 17.7742 2327.68C18.5209 2327.32 19.4276 2327.14 20.4942 2327.14C21.5609 2327.14 22.4609 2327.32 23.1942 2327.68C23.9409 2328.03 24.4942 2328.5 24.8542 2329.1C25.2276 2329.69 25.4142 2330.34 25.4142 2331.06C25.4142 2331.79 25.2342 2332.44 24.8742 2333C24.5142 2333.55 24.0342 2333.97 23.4342 2334.28C24.1676 2334.6 24.7409 2335.07 25.1542 2335.68C25.5676 2336.29 25.7742 2337.02 25.7742 2337.86C25.7742 2338.77 25.5409 2339.56 25.0742 2340.24C24.6209 2340.91 23.9942 2341.42 23.1942 2341.78C22.3942 2342.14 21.4942 2342.32 20.4942 2342.32C19.4942 2342.32 18.5942 2342.14 17.7942 2341.78C17.0076 2341.42 16.3809 2340.91 15.9142 2340.24C15.4609 2339.56 15.2342 2338.77 15.2342 2337.86C15.2342 2337.02 15.4409 2336.29 15.8542 2335.68C16.2676 2335.05 16.8409 2334.59 17.5742 2334.28ZM22.6942 2331.46C22.6942 2330.81 22.4942 2330.3 22.0942 2329.94C21.7076 2329.58 21.1742 2329.4 20.4942 2329.4C19.8276 2329.4 19.2942 2329.58 18.8942 2329.94C18.5076 2330.3 18.3142 2330.81 18.3142 2331.48C18.3142 2332.08 18.5142 2332.56 18.9142 2332.92C19.3276 2333.28 19.8542 2333.46 20.4942 2333.46C21.1342 2333.46 21.6609 2333.28 22.0742 2332.92C22.4876 2332.55 22.6942 2332.06 22.6942 2331.46ZM20.4942 2335.5C19.7342 2335.5 19.1142 2335.69 18.6342 2336.08C18.1676 2336.47 17.9342 2337.02 17.9342 2337.74C17.9342 2338.41 18.1609 2338.95 18.6142 2339.38C19.0809 2339.79 19.7076 2340 20.4942 2340C21.2809 2340 21.9009 2339.79 22.3542 2339.36C22.8076 2338.93 23.0342 2338.39 23.0342 2337.74C23.0342 2337.03 22.8009 2336.49 22.3342 2336.1C21.8676 2335.7 21.2542 2335.5 20.4942 2335.5Z" fill="black"/>
<path d="M17.5742 2334.28C16.2409 2333.59 15.5742 2332.51 15.5742 2331.06C15.5742 2330.34 15.7542 2329.69 16.1142 2329.1C16.4876 2328.5 17.0409 2328.03 17.7742 2327.68C18.5209 2327.32 19.4276 2327.14 20.4942 2327.14C21.5609 2327.14 22.4609 2327.32 23.1942 2327.68C23.9409 2328.03 24.4942 2328.5 24.8542 2329.1C25.2276 2329.69 25.4142 2330.34 25.4142 2331.06C25.4142 2331.79 25.2342 2332.44 24.8742 2333C24.5142 2333.55 24.0342 2333.97 23.4342 2334.28C24.1676 2334.6 24.7409 2335.07 25.1542 2335.68C25.5676 2336.29 25.7742 2337.02 25.7742 2337.86C25.7742 2338.77 25.5409 2339.56 25.0742 2340.24C24.6209 2340.91 23.9942 2341.42 23.1942 2341.78C22.3942 2342.14 21.4942 2342.32 20.4942 2342.32C19.4942 2342.32 18.5942 2342.14 17.7942 2341.78C17.0076 2341.42 16.3809 2340.91 15.9142 2340.24C15.4609 2339.56 15.2342 2338.77 15.2342 2337.86C15.2342 2337.02 15.4409 2336.29 15.8542 2335.68C16.2676 2335.05 16.8409 2334.59 17.5742 2334.28ZM22.6942 2331.46C22.6942 2330.81 22.4942 2330.3 22.0942 2329.94C21.7076 2329.58 21.1742 2329.4 20.4942 2329.4C19.8276 2329.4 19.2942 2329.58 18.8942 2329.94C18.5076 2330.3 18.3142 2330.81 18.3142 2331.48C18.3142 2332.08 18.5142 2332.56 18.9142 2332.92C19.3276 2333.28 19.8542 2333.46 20.4942 2333.46C21.1342 2333.46 21.6609 2333.28 22.0742 2332.92C22.4876 2332.55 22.6942 2332.06 22.6942 2331.46ZM20.4942 2335.5C19.7342 2335.5 19.1142 2335.69 18.6342 2336.08C18.1676 2336.47 17.9342 2337.02 17.9342 2337.74C17.9342 2338.41 18.1609 2338.95 18.6142 2339.38C19.0809 2339.79 19.7076 2340 20.4942 2340C21.2809 2340 21.9009 2339.79 22.3542 2339.36C22.8076 2338.93 23.0342 2338.39 23.0342 2337.74C23.0342 2337.03 22.8009 2336.49 22.3342 2336.1C21.8676 2335.7 21.2542 2335.5 20.4942 2335.5Z" fill="black"/>
<path d="M17.5742 2334.28C16.2409 2333.59 15.5742 2332.51 15.5742 2331.06C15.5742 2330.34 15.7542 2329.69 16.1142 2329.1C16.4876 2328.5 17.0409 2328.03 17.7742 2327.68C18.5209 2327.32 19.4276 2327.14 20.4942 2327.14C21.5609 2327.14 22.4609 2327.32 23.1942 2327.68C23.9409 2328.03 24.4942 2328.5 24.8542 2329.1C25.2276 2329.69 25.4142 2330.34 25.4142 2331.06C25.4142 2331.79 25.2342 2332.44 24.8742 2333C24.5142 2333.55 24.0342 2333.97 23.4342 2334.28C24.1676 2334.6 24.7409 2335.07 25.1542 2335.68C25.5676 2336.29 25.7742 2337.02 25.7742 2337.86C25.7742 2338.77 25.5409 2339.56 25.0742 2340.24C24.6209 2340.91 23.9942 2341.42 23.1942 2341.78C22.3942 2342.14 21.4942 2342.32 20.4942 2342.32C19.4942 2342.32 18.5942 2342.14 17.7942 2341.78C17.0076 2341.42 16.3809 2340.91 15.9142 2340.24C15.4609 2339.56 15.2342 2338.77 15.2342 2337.86C15.2342 2337.02 15.4409 2336.29 15.8542 2335.68C16.2676 2335.05 16.8409 2334.59 17.5742 2334.28ZM22.6942 2331.46C22.6942 2330.81 22.4942 2330.3 22.0942 2329.94C21.7076 2329.58 21.1742 2329.4 20.4942 2329.4C19.8276 2329.4 19.2942 2329.58 18.8942 2329.94C18.5076 2330.3 18.3142 2330.81 18.3142 2331.48C18.3142 2332.08 18.5142 2332.56 18.9142 2332.92C19.3276 2333.28 19.8542 2333.46 20.4942 2333.46C21.1342 2333.46 21.6609 2333.28 22.0742 2332.92C22.4876 2332.55 22.6942 2332.06 22.6942 2331.46ZM20.4942 2335.5C19.7342 2335.5 19.1142 2335.69 18.6342 2336.08C18.1676 2336.47 17.9342 2337.02 17.9342 2337.74C17.9342 2338.41 18.1609 2338.95 18.6142 2339.38C19.0809 2339.79 19.7076 2340 20.4942 2340C21.2809 2340 21.9009 2339.79 22.3542 2339.36C22.8076 2338.93 23.0342 2338.39 23.0342 2337.74C23.0342 2337.03 22.8009 2336.49 22.3342 2336.1C21.8676 2335.7 21.2542 2335.5 20.4942 2335.5Z" fill="black"/>
</svg>
