<svg width="86" height="86" viewBox="0 0 86 86" fill="none" xmlns="http://www.w3.org/2000/svg">
<circle cx="43" cy="43" r="43" fill="#38A484" fill-opacity="0.1"/>
<path d="M43.0718 42.7911C44.6372 42.7911 46.1372 42.1704 47.2438 41.0639C48.3504 39.9573 48.9725 38.4559 48.9725 36.8904C48.9725 35.3265 48.3518 33.8251 47.2438 32.7184C46.1373 31.6119 44.6373 30.9897 43.0718 30.9897C41.5064 30.9897 40.0065 31.6119 38.8998 32.7184C37.7933 33.825 37.1711 35.3264 37.1711 36.8904C37.174 38.4558 37.7962 39.9543 38.9013 41.061C40.0078 42.1675 41.5078 42.7897 43.0718 42.7911ZM43.0718 31.9504C45.0704 31.9504 46.8715 33.155 47.6358 35.0001C48.4015 36.8467 47.9782 38.9718 46.5648 40.3852C45.1529 41.7986 43.0279 42.2205 41.1812 41.4562C39.3346 40.6906 38.1315 38.8895 38.1315 36.8908C38.1343 34.1635 40.3445 31.9548 43.0718 31.9504ZM42.6088 57.8042C42.6642 58.0145 42.8545 58.1593 43.0718 58.1593C43.2892 58.1593 43.4795 58.0145 43.5349 57.8042C44.5477 54.0231 47.0079 50.5711 49.3873 47.2333C51.9739 43.6041 54.4185 40.1751 54.4185 36.8922L54.4171 36.8937C54.4171 32.8398 52.2552 29.094 48.7451 27.0671C45.2338 25.0401 40.9098 25.0401 37.3986 27.0671C33.8886 29.0941 31.7266 32.8398 31.7266 36.8937C31.7266 40.1777 34.1698 43.6067 36.7578 47.2347C39.1357 50.5714 41.5946 54.0231 42.6088 57.8042ZM43.0718 26.5046C45.8261 26.5089 48.4653 27.604 50.4129 29.5515C52.3604 31.4975 53.4555 34.138 53.4584 36.8911C53.4584 39.8684 51.1018 43.1751 48.606 46.6766C46.481 49.6567 44.2951 52.7264 43.0718 56.09C41.8488 52.725 39.6627 49.6569 37.5377 46.6766C35.0419 43.1766 32.6853 39.8682 32.6853 36.8911C32.6881 34.1383 33.7833 31.4977 35.7307 29.5515C37.6782 27.604 40.3173 26.5089 43.0718 26.5046ZM54.3973 57.8781C54.3973 58.8099 53.2354 59.5215 50.8447 60.0542H50.8462C48.2865 60.5641 45.6814 60.8042 43.072 60.773C40.4626 60.8042 37.8574 60.5627 35.2993 60.0528C32.9086 59.523 31.7467 58.8099 31.7467 57.8781C31.7467 55.9164 37.1914 55.2914 39.5307 55.1124C39.6586 55.0996 39.7878 55.1394 39.8872 55.2218C39.9853 55.3056 40.0478 55.4249 40.0563 55.5542C40.0662 55.682 40.0236 55.8099 39.9384 55.9065C39.8532 56.0045 39.7324 56.0627 39.6032 56.0698C37.856 56.1721 36.1245 56.4562 34.4355 56.9164C33.0236 57.3482 32.7054 57.7658 32.7054 57.8766C32.7054 58.0371 33.2196 58.6067 35.508 59.1167C37.998 59.611 40.5334 59.8454 43.072 59.8141C45.6103 59.8454 48.1458 59.611 50.6374 59.1167C52.9244 58.6082 53.4385 58.0371 53.4385 57.8766C53.4385 57.7644 53.1204 57.3482 51.7084 56.9164C50.0195 56.4562 48.288 56.1721 46.5408 56.0698C46.4115 56.0627 46.2908 56.0045 46.2056 55.9065C46.1189 55.8099 46.0763 55.682 46.0862 55.5542C46.0962 55.4249 46.1573 55.3056 46.2567 55.2218C46.3561 55.1394 46.484 55.0996 46.6132 55.1124C48.9541 55.29 54.3973 55.9164 54.3973 57.8781Z" fill="black" stroke="black" stroke-width="0.5"/>
</svg>
